<svg xmlns="http://www.w3.org/2000/svg" viewBox="0 0 80 80"><defs><style>.cls-1{fill:#ffdc5d;}.cls-2{fill:#016d38;}</style></defs><g id="Capa_2" data-name="Capa 2"><g id="cuerpo"><circle class="cls-1" cx="40" cy="40" r="40"/><path class="cls-2" d="M52.9,37.58h7.41A2.41,2.41,0,0,0,65,36.77a2.41,2.41,0,0,0-4.69-.8H52.9V34.35h2.42a.79.79,0,0,0,.57-.23l3-3h1.43A2.41,2.41,0,0,0,65,30.32a2.41,2.41,0,0,0-4.69-.8H58.55a.79.79,0,0,0-.57.23l-3,3H52.9v-.8a.79.79,0,0,0-.23-.57l-4-4a.79.79,0,0,0-.57-.23H44V26L50,23.82a.8.8,0,0,0,.52-.76V19.69a2.42,2.42,0,1,0-1.61,0v2.82L44,24.32v-1.4a2.42,2.42,0,1,0-1.61,0V27.1H37.58V19.69A2.41,2.41,0,0,0,36.77,15a2.41,2.41,0,0,0-.8,4.69V27.1H34.35V24.68a.79.79,0,0,0-.23-.57l-3-3V19.69A2.41,2.41,0,0,0,30.32,15a2.41,2.41,0,0,0-.8,4.69v1.76a.79.79,0,0,0,.23.57l3,3V27.1h-.8a.79.79,0,0,0-.57.23l-4,4a.79.79,0,0,0-.23.57v4H26L23.82,30a.8.8,0,0,0-.76-.52H19.69a2.42,2.42,0,1,0,0,1.61h2.82L24.32,36h-1.4a2.42,2.42,0,1,0,0,1.61H27.1v4.84H19.69a2.41,2.41,0,0,0-4.69.81,2.41,2.41,0,0,0,4.69.8H27.1v1.62H24.68a.79.79,0,0,0-.57.23l-3,3H19.69a2.41,2.41,0,0,0-4.69.81,2.41,2.41,0,0,0,4.69.8h1.76a.79.79,0,0,0,.57-.23l3-3H27.1v.8a.79.79,0,0,0,.23.57l4,4a.79.79,0,0,0,.57.23h4V54L30,56.18a.8.8,0,0,0-.52.76v3.37a2.42,2.42,0,1,0,1.61,0V57.49L36,55.68v1.4a2.42,2.42,0,1,0,1.61,0V52.9h4.84v7.41A2.41,2.41,0,0,0,43.23,65a2.41,2.41,0,0,0,.8-4.69V52.9h1.62v2.42a.79.79,0,0,0,.23.57l3,3v1.43A2.41,2.41,0,0,0,49.68,65a2.41,2.41,0,0,0,.8-4.69V58.55a.79.79,0,0,0-.23-.57l-3-3V52.9h.8a.79.79,0,0,0,.57-.23l4-4a.79.79,0,0,0,.23-.57V44H54L56.18,50a.8.8,0,0,0,.76.52h3.37a2.42,2.42,0,1,0,0-1.61H57.49L55.68,44h1.4a2.42,2.42,0,1,0,0-1.61H52.9ZM62.58,36a.81.81,0,1,1,0,1.61.81.81,0,1,1,0-1.61Zm0-6.45a.81.81,0,1,1,0,1.61.81.81,0,1,1,0-1.61ZM49.68,16.61a.81.81,0,1,1-.81.81.81.81,0,0,1,.81-.81Zm-6.45,3.23a.81.81,0,1,1-.81.81.8.8,0,0,1,.81-.81Zm-6.46-3.23a.81.81,0,1,1-.8.81.81.81,0,0,1,.8-.81Zm-6.45,0a.81.81,0,1,1-.8.81.81.81,0,0,1,.8-.81ZM17.42,31.13a.81.81,0,1,1,.81-.81.81.81,0,0,1-.81.81Zm3.23,6.45a.81.81,0,1,1,.8-.81.81.81,0,0,1-.8.81ZM17.42,44a.81.81,0,1,1,0-1.61.81.81,0,1,1,0,1.61Zm0,6.45a.81.81,0,1,1,0-1.61.81.81,0,1,1,0,1.61Zm12.9,12.91a.81.81,0,0,1,0-1.62.81.81,0,1,1,0,1.62Zm6.45-3.23a.81.81,0,1,1,.81-.81.8.8,0,0,1-.81.81Zm6.46,3.23a.81.81,0,1,1,.8-.81.81.81,0,0,1-.8.81Zm6.45,0a.81.81,0,1,1,.8-.81.81.81,0,0,1-.8.81Zm12.9-14.52a.81.81,0,1,1-.81.81.81.81,0,0,1,.81-.81Zm-3.23-6.45a.81.81,0,1,1-.8.81.81.81,0,0,1,.8-.81Zm-8.06,5.31-3.56,3.56H32.27l-3.56-3.56V32.27l3.56-3.56H47.73l3.56,3.56Z"/><path class="cls-2" d="M46.45,30.32H33.55a.8.8,0,0,0-.57.24L30.56,33a.8.8,0,0,0-.24.57v12.9a.8.8,0,0,0,.24.57L33,49.44a.8.8,0,0,0,.57.24h12.9a.8.8,0,0,0,.57-.24L49.44,47a.8.8,0,0,0,.24-.57V33.55a.8.8,0,0,0-.24-.57L47,30.56a.8.8,0,0,0-.57-.24Zm1.61,4.84h-4.5l-1.38-1.38a.79.79,0,0,0-.57-.23H35.16v1.61h6.12l1.38,1.38a.79.79,0,0,0,.57.23h4.83v9.35l-1.94,1.94H33.88l-1.94-1.94V44.84h4.5l1.38,1.38a.79.79,0,0,0,.57.23h6.45V44.84H38.72l-1.38-1.38a.79.79,0,0,0-.57-.23H31.94V33.88l1.94-1.94H46.12l1.94,1.94Z"/></g></g></svg>