<svg xmlns="http://www.w3.org/2000/svg" viewBox="0 0 80 80"><defs><style>.cls-1{fill:#ffdc5d;}.cls-2{fill:none;stroke:#016d38;stroke-miterlimit:10;stroke-width:2px;}</style></defs><g id="Capa_2" data-name="Capa 2"><g id="cuerpo"><circle class="cls-1" cx="40" cy="40" r="40"/><path class="cls-2" d="M28.73,53.53c9.11,9.12,17.81,11,21,11.22A23.48,23.48,0,0,0,53.26,57a29.19,29.19,0,0,0-8.41-5.61l-3.51,3.51c-1.19-.33-4.48-1.68-8.41-5.61s-5.28-7.22-5.6-8.41l3.5-3.51A29.19,29.19,0,0,0,25.22,29a23.54,23.54,0,0,0-7.71,3.51c.18,3.21,2.11,11.91,11.22,21Z"/><path class="cls-2" d="M42.43,42.23a25.75,25.75,0,0,1,1.49-4.55c.63-1.91.79-4,1.66-5.78s2.78-3.38,4.73-2.92a6.22,6.22,0,0,1,1.85.9L58.58,34C60.9,35.46,63,38,61.17,40.81c-1.33,2.07-4.43,1.79-6.51,1.55-1.33-.16-2.88,0-3.67,1a10.34,10.34,0,0,0-.67,1.33c-2,4-8.44,2-7.89-2.49Z"/><path class="cls-2" d="M38.53,36.57a2.84,2.84,0,0,0,3,.21,2.74,2.74,0,0,0,.92-1.57c.85-3-.78-9.5-5.17-7.36-3.58,1.74-1.33,7.27,1.29,8.72Z"/><path class="cls-2" d="M40.49,23.9a3.75,3.75,0,0,0,3.87,1.79,1.73,1.73,0,0,0,.75-.35,2.23,2.23,0,0,0,.6-1.12,8.55,8.55,0,0,0-.15-4.91,4.79,4.79,0,0,0-1.7-2.47,2.55,2.55,0,0,0-2.86-.1c-2.26,1.62-1.82,5.08-.51,7.16Z"/><path class="cls-2" d="M47.62,20a5.74,5.74,0,0,0,.92,3.89A3.11,3.11,0,0,0,52.14,25a4.48,4.48,0,0,0,2-2.77,7.44,7.44,0,0,0,.46-4.45,3.25,3.25,0,0,0-3.33-2.5c-2.7.41-3.51,2.15-3.7,4.69Z"/><path class="cls-2" d="M56.6,28.72a3.24,3.24,0,0,0,1.92,2.17c3.63,1.23,4.48-4.65,3.7-6.94-.93-2.74-3.92-2.88-5.37-.47a6.84,6.84,0,0,0-.25,5.24Z"/></g></g></svg>