<svg xmlns="http://www.w3.org/2000/svg" viewBox="0 0 80 80"><defs><style>.cls-1{fill:#ffdc5d;}.cls-2{fill:#016d38;}</style></defs><g id="Capa_2" data-name="Capa 2"><g id="cuerpo"><circle class="cls-1" cx="40" cy="40" r="40"/><path class="cls-2" d="M64.33,34.39a3.08,3.08,0,0,0-1.17-2.06L42,15.69a3.1,3.1,0,0,0-3.86,0L25.56,25.49A1,1,0,0,0,26.77,27L39.3,17.2a1.14,1.14,0,0,1,1.42,0l0,0L62,33.87a1.16,1.16,0,0,1,.43.76,1.14,1.14,0,0,1-.23.84,1.12,1.12,0,0,1-.76.43,1.1,1.1,0,0,1-.84-.23L40.6,20a1,1,0,0,0-1.2,0L19.45,35.67a1.13,1.13,0,0,1-.85.23,1.12,1.12,0,0,1-.76-.43,1.14,1.14,0,0,1-.23-.84,1.16,1.16,0,0,1,.43-.76l2.58-2a1,1,0,1,0-1.21-1.54l-2.57,2a3.09,3.09,0,0,0,1.52,5.51,3.38,3.38,0,0,0,.71,0v24a3.1,3.1,0,0,0,3.1,3.1H57.83a3.1,3.1,0,0,0,3.1-3.1v-24l.32,0,.39,0a3.07,3.07,0,0,0,2.06-1.16,3.13,3.13,0,0,0,.63-2.29Zm-6.5,28.66H51.61v-.52a1,1,0,0,0-2,0v.52H30.35V53.22a9.65,9.65,0,0,1,19.3,0v1.5a1,1,0,0,0,2,0v-1.5a11.61,11.61,0,0,0-23.22,0v9.83H22.17A1.16,1.16,0,0,1,21,61.9v-25L40,22,59,36.92v25a1.16,1.16,0,0,1-1.15,1.15Z"/><path class="cls-2" d="M47,30.49a3.7,3.7,0,0,0-3.47,2.41h-7a3.7,3.7,0,1,0-6.77,3,3.62,3.62,0,0,0-.39,1.66,3.7,3.7,0,0,0,7.16,1.29h7a3.7,3.7,0,0,0,7.16-1.29,3.62,3.62,0,0,0-.39-1.66A3.71,3.71,0,0,0,47,30.49Zm1.38,6a1.74,1.74,0,1,1-3.11,1.26,1,1,0,0,0-1-.86h-8.5a1,1,0,0,0-1,.86,1.74,1.74,0,1,1-3.11-1.26,1,1,0,0,0,0-1.2,1.79,1.79,0,0,1-.36-1.07,1.74,1.74,0,0,1,3.47-.2,1,1,0,0,0,1,.87h8.5a1,1,0,0,0,1-.87,1.74,1.74,0,0,1,3.47.2,1.79,1.79,0,0,1-.36,1.07,1,1,0,0,0,0,1.2Z"/><path class="cls-2" d="M23.09,29.65a1,1,0,0,0,.66-.26h0a1,1,0,1,0-.66.26Z"/><path class="cls-2" d="M50.63,57.65a1,1,0,1,0,1,1h0a1,1,0,0,0-1-1Z"/></g></g></svg>