<svg xmlns="http://www.w3.org/2000/svg" viewBox="0 0 80 80"><defs><style>.cls-1{fill:#ffdc5d;}.cls-2{fill:#016d38;}</style></defs><g id="Capa_2" data-name="Capa 2"><g id="cuerpo"><circle class="cls-1" cx="40" cy="40" r="40"/><path class="cls-2" d="M51.12,37.66H24.82v-.07a13.15,13.15,0,0,1,26.3,0v.07ZM45.38,64.72H30.56a5.29,5.29,0,0,1-5.35-5.21v-1H50.73v1a5.29,5.29,0,0,1-5.35,5.21Zm5.49-8H25.07V39h25.8V56.72ZM32.27,22.36a3.1,3.1,0,0,1,3.14-3h5.12a3.1,3.1,0,0,1,3.14,3V24a15.86,15.86,0,0,0-11.4,0v-1.6ZM34.79,13a1.35,1.35,0,0,1,1.38-1.31h3.6A1.35,1.35,0,0,1,41.15,13v4.69H34.79V13Zm11,3H42.41V13.6h3.37V16Zm0,9.09V22.32a5.33,5.33,0,0,0-2.85-4.7v-.24h2.78A1.25,1.25,0,0,0,47,16.13V13.31a1.25,1.25,0,0,0-1.24-1.24h-3a3.56,3.56,0,0,0-3.33-2.26H36.56A3.54,3.54,0,0,0,33,13.31v4.31a5.33,5.33,0,0,0-2.85,4.7v2.74a14.18,14.18,0,0,0-6.73,12V59.63A7.49,7.49,0,0,0,31,67H45a7.48,7.48,0,0,0,7.55-7.4V37.07a14.18,14.18,0,0,0-6.73-12Z"/><path class="cls-2" d="M41.07,47.25a3.25,3.25,0,0,0-6,0,3.14,3.14,0,0,0-1.39,2.59A3.19,3.19,0,0,0,36.89,53a3.28,3.28,0,0,0,1.17-.21,3.28,3.28,0,0,0,1.17.21,3.19,3.19,0,0,0,3.23-3.16,3.14,3.14,0,0,0-1.39-2.59Z"/><path class="cls-2" d="M38.06,44.58a1.24,1.24,0,0,0,1.24-1.24v-.72a1.24,1.24,0,0,0-2.48,0v.72a1.24,1.24,0,0,0,1.24,1.24Z"/><path class="cls-2" d="M33.79,44.85a1.24,1.24,0,0,0,2.43-.54l-.15-.7a1.24,1.24,0,0,0-2.43.54l.15.7Z"/><path class="cls-2" d="M31.49,47.06l.19.69a1.24,1.24,0,0,0,1.2.93,1.12,1.12,0,0,0,.31,0,1.23,1.23,0,0,0,.89-1.51l-.18-.69a1.25,1.25,0,0,0-2.41.63Z"/><path class="cls-2" d="M40.92,45.79a1.24,1.24,0,0,0,1.48-.94l.16-.7a1.24,1.24,0,0,0-2.43-.54l-.15.7a1.24,1.24,0,0,0,.94,1.48Z"/><path class="cls-2" d="M42.12,47.12A1.23,1.23,0,0,0,43,48.63a1.21,1.21,0,0,0,1.52-.88l.19-.69a1.25,1.25,0,0,0-.89-1.52,1.23,1.23,0,0,0-1.52.89l-.18.69Z"/><path class="cls-2" d="M53.14,17.56a2.17,2.17,0,1,1,2.17,2.17,2.18,2.18,0,0,1-2.17-2.17Zm5.9,0a3.73,3.73,0,1,0-3.73,3.74A3.74,3.74,0,0,0,59,17.55Z"/><path class="cls-2" d="M59,36.12a3.82,3.82,0,1,1,3.82-3.82A3.82,3.82,0,0,1,59,36.12ZM59,27a5.33,5.33,0,1,0,5.33,5.33A5.33,5.33,0,0,0,59,27Z"/><path class="cls-2" d="M58.33,50.65a2,2,0,1,1,2-2,2,2,0,0,1-2,2Zm0-5.2a3.2,3.2,0,1,0,3.2,3.2,3.2,3.2,0,0,0-3.2-3.2Z"/></g></g></svg>