<svg xmlns="http://www.w3.org/2000/svg" viewBox="0 0 58.38 57.95"><defs><style>.cls-1{fill:none;stroke:#716122;stroke-miterlimit:10;stroke-width:3px;fill-rule:evenodd;}</style></defs><g id="Capa_2" data-name="Capa 2"><g id="cuerpo"><path class="cls-1" d="M29.19,1.5A27.61,27.61,0,0,0,1.5,29,27.23,27.23,0,0,0,6.77,45.09L3.32,55.29,14,51.91A27.72,27.72,0,0,0,56.88,29,27.61,27.61,0,0,0,29.19,1.5Zm16.63,35c-.2-.34-.74-.54-1.54-.94S39.5,33.23,38.76,33s-1.28-.4-1.82.4S34.86,36,34.38,36.51s-.94.6-1.74.2a22,22,0,0,1-6.5-4,24.3,24.3,0,0,1-4.49-5.55c-.47-.8,0-1.23.35-1.63s.81-.94,1.22-1.4a5.73,5.73,0,0,0,.8-1.34,1.43,1.43,0,0,0-.07-1.4c-.2-.4-1.81-4.35-2.49-5.95s-1.34-1.54-1.81-1.54a11.56,11.56,0,0,0-1.34.14,4.58,4.58,0,0,0-2.36,1,9,9,0,0,0-2.82,6.68c0,3.94,2.89,7.75,3.29,8.28S22,38.91,30.21,42.12s8.21,2.14,9.69,2,4.78-1.94,5.45-3.81a6.66,6.66,0,0,0,.47-3.8Z"/></g></g></svg>