<svg xmlns="http://www.w3.org/2000/svg" viewBox="0 0 1702.64 128.35"><defs><style>.cls-1{isolation:isolate;}.cls-2{opacity:0.6;mix-blend-mode:multiply;}.cls-3{fill:#026435;}</style></defs><g class="cls-1"><g id="Capa_2" data-name="Capa 2"><g id="cuerpo"><g class="cls-2"><path class="cls-3" d="M796,23.42a3.08,3.08,0,0,1,4.33-2.16,5.84,5.84,0,0,1,1,.78l3.47,3.11a20.32,20.32,0,0,1,2.67,2.74,4.09,4.09,0,0,1,1,3.17c-.32,1.48-1.83,2.34-3.18,3L801.35,36a7.58,7.58,0,0,1-3.74,1.1A2.62,2.62,0,0,1,795,34.69c.06-1.22,1.2-2,1.87-3.06,2-3.05-1.28-5.26-.89-8.21Z"/><path class="cls-3" d="M805.43,22.88a1.59,1.59,0,0,0,.2.94,1.92,1.92,0,0,0,.82.67,4.36,4.36,0,0,0,3.27.23,9,9,0,0,0,.85-.36,3.42,3.42,0,0,0,.61-.37c1.53-1.21.41-3.67-1.3-4s-4.35.85-4.45,2.85Z"/><path class="cls-3" d="M811.44,27.57a1.77,1.77,0,0,0-.91,1.88,1.87,1.87,0,0,0,.35.57,5.13,5.13,0,0,0,2.48,1.75,3.19,3.19,0,0,0,2.91-.54,2.59,2.59,0,0,0-.26-3.94c-1.21-.94-3.41-.53-4.57.28Z"/><path class="cls-3" d="M813.18,33.46a4.55,4.55,0,0,0-2-.65A2.18,2.18,0,0,0,809,36a4.26,4.26,0,0,0,1.84,1.87c1.23.72,3.73,1.15,4.29-.71.47-1.58-.68-3-2-3.74Z"/><path class="cls-3" d="M808,41.54a3.06,3.06,0,0,1-1.75.06A4.73,4.73,0,0,1,803,39a2.07,2.07,0,0,1,1.57-3c2-.1,6.54,4.36,3.37,5.6Z"/><path class="cls-3" d="M761.89,36.13a18.19,18.19,0,0,1,2.72,2.48,34.83,34.83,0,0,1,3.52,3c1,1.17,1.49,3,.56,4.23a4.6,4.6,0,0,1-1.22,1L762.58,50c-1.77,1.16-4.22,1.79-5.6-.34-1-1.58.14-3.67,1-5.05a3,3,0,0,0,.43-2.9,7.48,7.48,0,0,0-.72-.88c-2.16-2.69,1.26-6.55,4.23-4.74Z"/><path class="cls-3" d="M767.09,35.18a2.19,2.19,0,0,0-1.08,2,2.15,2.15,0,0,0,.8,1.15c1.87,1.55,6.91,2.45,6.79-1.3-.09-3.06-4.67-3.23-6.51-1.85Z"/><path class="cls-3" d="M775.35,40.55a2.89,2.89,0,0,0-2.48,2.15,1.34,1.34,0,0,0,0,.63,1.61,1.61,0,0,0,.6.77A6.55,6.55,0,0,0,777,45.55a3.7,3.7,0,0,0,2.27-.41,2,2,0,0,0,1-2c-.42-2.09-3-2.87-4.85-2.61Z"/><path class="cls-3" d="M775.85,46.78a4.45,4.45,0,0,0-3-.58,2.39,2.39,0,0,0-1.94,2.16,3.45,3.45,0,0,0,1.29,2.31,5.71,5.71,0,0,0,3,1.73,2.5,2.5,0,0,0,2.8-1.55c.56-2-.4-3.14-2.12-4.07Z"/><path class="cls-3" d="M766.89,50.31a2.52,2.52,0,0,0-2.13.66c-2,2.16,1.85,4.61,3.7,4.79,2.21.21,3.25-1.84,2-3.62a5.28,5.28,0,0,0-3.59-1.83Z"/><path class="cls-3" d="M714.31,6.78a3.07,3.07,0,0,1,3.9-2.86,6,6,0,0,1,1.12.59L723.28,7a19,19,0,0,1,3.09,2.23,4.08,4.08,0,0,1,1.51,3c-.06,1.51-1.4,2.61-2.61,3.5l-3.54,2.59A7.69,7.69,0,0,1,718.24,20a2.64,2.64,0,0,1-3-1.94c-.15-1.21.84-2.22,1.32-3.33,1.46-3.35-2.16-5-2.28-7.94Z"/><path class="cls-3" d="M723.51,4.64a1.53,1.53,0,0,0,.36.89,1.92,1.92,0,0,0,.92.52,4.3,4.3,0,0,0,3.26-.34,6.33,6.33,0,0,0,.77-.5,3.1,3.1,0,0,0,.55-.47c1.29-1.45-.23-3.68-2-3.67s-4.13,1.58-3.89,3.57Z"/><path class="cls-3" d="M730.23,8.22a1.82,1.82,0,0,0-.58,2,2.13,2.13,0,0,0,.45.5A5.14,5.14,0,0,0,732.84,12a3.17,3.17,0,0,0,2.77-1,2.58,2.58,0,0,0-.92-3.84c-1.36-.72-3.45.06-4.46,1.05Z"/><path class="cls-3" d="M733,13.73a4.63,4.63,0,0,0-2.08-.3,2.41,2.41,0,0,0-1.76,1,2.4,2.4,0,0,0,.16,2.52,4.33,4.33,0,0,0,2.13,1.53c1.34.49,3.88.49,4.11-1.44.19-1.63-1.19-2.87-2.56-3.35Z"/><path class="cls-3" d="M729.21,22.58a3,3,0,0,1-1.72.36,4.67,4.67,0,0,1-3.59-2.05,2.07,2.07,0,0,1,1-3.25c2-.43,7.2,3.18,4.29,4.94Z"/><path class="cls-3" d="M682.89,25.15a18.26,18.26,0,0,1,3.1,2,34.23,34.23,0,0,1,4,2.33c1.18,1,2,2.71,1.27,4.08a4.49,4.49,0,0,1-1,1.2l-4.27,4c-1.54,1.44-3.85,2.49-5.58.62-1.29-1.38-.49-3.63.09-5.14a3,3,0,0,0-.07-2.93,8.88,8.88,0,0,0-.86-.75c-2.59-2.28.12-6.66,3.36-5.39Z"/><path class="cls-3" d="M687.84,23.32a2.19,2.19,0,0,0-.72,2.16,2.11,2.11,0,0,0,1,1c2.11,1.21,7.22,1.23,6.47-2.44-.62-3-5.16-2.38-6.74-.71Z"/><path class="cls-3" d="M696.9,27.2a2.89,2.89,0,0,0-2.08,2.54,1.46,1.46,0,0,0,.12.62,1.67,1.67,0,0,0,.73.66,6.52,6.52,0,0,0,3.67.83,3.68,3.68,0,0,0,2.17-.8,2,2,0,0,0,.62-2.11c-.78-2-3.44-2.32-5.23-1.74Z"/><path class="cls-3" d="M698.46,33.25a4.5,4.5,0,0,0-3.07-.06,2.41,2.41,0,0,0-1.53,2.47,3.4,3.4,0,0,0,1.67,2.05,5.69,5.69,0,0,0,3.22,1.19,2.5,2.5,0,0,0,2.5-2c.21-2.09-.93-3-2.79-3.65Z"/><path class="cls-3" d="M690.24,38.26a2.54,2.54,0,0,0-2,1c-1.61,2.47,2.61,4.22,4.46,4.08,2.21-.17,2.88-2.37,1.37-3.91a5.32,5.32,0,0,0-3.85-1.19Z"/><path class="cls-3" d="M628.74,9.78a3.07,3.07,0,0,1,2.75-4,5.92,5.92,0,0,1,1.25.2l4.54,1.06a19.2,19.2,0,0,1,3.65,1.1,4.11,4.11,0,0,1,2.4,2.31c.43,1.45-.48,2.93-1.34,4.17s-1.67,2.39-2.51,3.59A7.76,7.76,0,0,1,636.75,21a2.64,2.64,0,0,1-3.45-.87c-.53-1.09.07-2.37.17-3.58.29-3.64-3.66-4-4.73-6.76Z"/><path class="cls-3" d="M636.73,4.76a1.57,1.57,0,0,0,.64.73,2,2,0,0,0,1,.19,4.37,4.37,0,0,0,3-1.38,7.83,7.83,0,0,0,.57-.72,3.23,3.23,0,0,0,.36-.62c.75-1.8-1.41-3.42-3.06-2.84S635.86,3,636.73,4.76Z"/><path class="cls-3" d="M644.26,6a1.79,1.79,0,0,0,.11,2.09,1.75,1.75,0,0,0,.58.33,5.15,5.15,0,0,0,3,.33,3.2,3.2,0,0,0,2.29-1.87,2.59,2.59,0,0,0-2.13-3.33c-1.51-.24-3.24,1.18-3.87,2.45Z"/><path class="cls-3" d="M648.63,10.29a4.51,4.51,0,0,0-2.06.39,2.38,2.38,0,0,0-1.33,1.56,2.38,2.38,0,0,0,1,2.33,4.34,4.34,0,0,0,2.51.75c1.42,0,3.83-.79,3.42-2.7-.35-1.6-2.06-2.33-3.51-2.33Z"/><path class="cls-3" d="M648,19.88a3,3,0,0,1-1.5.89,4.73,4.73,0,0,1-4.07-.76,2.08,2.08,0,0,1-.08-3.41c1.69-1,7.84.67,5.65,3.28Z"/><path class="cls-3" d="M605,37.35a19.66,19.66,0,0,1,3.58.87,35.81,35.81,0,0,1,4.52.91c1.44.55,2.76,1.92,2.53,3.44A4.65,4.65,0,0,1,615,44c-.91,1.73-1.83,3.45-2.74,5.17s-2.83,3.61-5.07,2.41c-1.67-.89-1.65-3.28-1.59-4.9a3,3,0,0,0-1-2.74,8.11,8.11,0,0,0-1.06-.43c-3.19-1.32-2.06-6.34,1.42-6.2Z"/><path class="cls-3" d="M609.08,34a2.2,2.2,0,0,0,0,2.27,2.13,2.13,0,0,0,1.26.62c2.39.46,7.23-1.18,5.32-4.41-1.55-2.64-5.65-.58-6.59,1.52Z"/><path class="cls-3" d="M618.9,34.74a2.9,2.9,0,0,0-1.14,3.08,1.45,1.45,0,0,0,.32.55,1.75,1.75,0,0,0,.9.39,6.48,6.48,0,0,0,3.74-.42,3.62,3.62,0,0,0,1.79-1.45,2,2,0,0,0-.1-2.2c-1.38-1.63-4-1.08-5.51.05Z"/><path class="cls-3" d="M622.35,40a4.48,4.48,0,0,0-2.93.94,2.41,2.41,0,0,0-.65,2.83,3.48,3.48,0,0,0,2.24,1.4,5.73,5.73,0,0,0,3.45.08,2.5,2.5,0,0,0,1.7-2.71c-.48-2-1.86-2.55-3.81-2.54Z"/><path class="cls-3" d="M616.19,47.37A2.51,2.51,0,0,0,614.65,49c-.72,2.85,3.84,3.14,5.55,2.41,2-.88,2-3.18,0-4.15a5.32,5.32,0,0,0-4,.13Z"/><path class="cls-3" d="M549.25,39.67a3.06,3.06,0,0,1,1.54-4.58,5.79,5.79,0,0,1,1.25-.17l4.65-.25a19.49,19.49,0,0,1,3.82,0,4.07,4.07,0,0,1,2.94,1.55c.82,1.27.37,2.94-.12,4.37s-.93,2.76-1.39,4.15a7.64,7.64,0,0,1-1.86,3.41,2.63,2.63,0,0,1-3.55.14c-.82-.9-.59-2.3-.84-3.49-.74-3.58-4.63-2.8-6.44-5.17Z"/><path class="cls-3" d="M555.53,32.62a1.67,1.67,0,0,0,.81.52,1.9,1.9,0,0,0,1-.11,4.34,4.34,0,0,0,2.47-2.16,5.2,5.2,0,0,0,.34-.85,3.18,3.18,0,0,0,.18-.69c.22-1.94-2.31-2.89-3.73-1.87s-2.46,3.67-1.12,5.16Z"/><path class="cls-3" d="M563.09,31.67a1.79,1.79,0,0,0,.69,2,1.82,1.82,0,0,0,.66.15,5.1,5.1,0,0,0,3-.52,3.18,3.18,0,0,0,1.68-2.43,2.59,2.59,0,0,0-3-2.61c-1.53.19-2.79,2-3,3.43Z"/><path class="cls-3" d="M568.49,34.6a4.57,4.57,0,0,0-1.86.95,2.18,2.18,0,0,0,.74,3.83,4.26,4.26,0,0,0,2.62,0c1.38-.36,3.45-1.83,2.53-3.54-.78-1.45-2.63-1.67-4-1.26Z"/><path class="cls-3" d="M570.53,44a2.94,2.94,0,0,1-1.19,1.28,4.72,4.72,0,0,1-4.12.41c-1.25-.5-2.07-2.11-1-3.25,1.33-1.47,7.71-1.55,6.34,1.56Z"/><path class="cls-3" d="M534.16,72.79a19.58,19.58,0,0,1,3.68-.17,37.4,37.4,0,0,1,4.59-.39c1.54.13,3.19,1.07,3.4,2.6a4.64,4.64,0,0,1-.15,1.57c-.39,1.91-.79,3.82-1.18,5.73-.43,2.07-1.72,4.26-4.2,3.73-1.85-.39-2.5-2.69-2.89-4.25a3,3,0,0,0-1.74-2.36,7.22,7.22,0,0,0-1.14-.11c-3.43-.37-3.75-5.52-.37-6.35Z"/><path class="cls-3" d="M537.16,68.44a2.21,2.21,0,0,0,.66,2.19,2.08,2.08,0,0,0,1.37.23c2.42-.22,6.62-3.16,3.88-5.72-2.23-2.09-5.59,1-5.91,3.3Z"/><path class="cls-3" d="M546.79,66.39a2.89,2.89,0,0,0-.22,3.27,1.26,1.26,0,0,0,.45.44,1.68,1.68,0,0,0,1,.13,6.55,6.55,0,0,0,3.48-1.45,3.69,3.69,0,0,0,1.31-1.9,2,2,0,0,0-.71-2.08c-1.78-1.18-4.14.09-5.28,1.59Z"/><path class="cls-3" d="M551.56,70.44A4.45,4.45,0,0,0,549,72.16a2.4,2.4,0,0,0,.16,2.9,3.43,3.43,0,0,0,2.55.71,5.73,5.73,0,0,0,3.33-.88,2.5,2.5,0,0,0,.88-3.08c-1-1.82-2.5-1.93-4.38-1.37Z"/><path class="cls-3" d="M547.73,79.27a2.54,2.54,0,0,0-1,2c.1,2.94,4.56,1.94,6,.76,1.72-1.41,1-3.6-1.12-4a5.31,5.31,0,0,0-3.84,1.25Z"/><path class="cls-3" d="M480.46,71.22a3.07,3.07,0,0,1,2.75-4,5.91,5.91,0,0,1,1.25.19l4.54,1a18.8,18.8,0,0,1,3.66,1.1,4.08,4.08,0,0,1,2.39,2.3c.44,1.45-.46,2.92-1.33,4.17l-2.49,3.59a7.71,7.71,0,0,1-2.73,2.77,2.64,2.64,0,0,1-3.45-.86c-.53-1.09.07-2.37.16-3.58.28-3.64-3.66-4-4.75-6.75Z"/><path class="cls-3" d="M488.45,66.18a1.57,1.57,0,0,0,.64.73,2,2,0,0,0,1,.19,4.36,4.36,0,0,0,3-1.39,6.6,6.6,0,0,0,.56-.72,3.23,3.23,0,0,0,.36-.62c.75-1.81-1.42-3.42-3.06-2.83s-3.38,2.84-2.51,4.64Z"/><path class="cls-3" d="M496,67.37a1.79,1.79,0,0,0,.11,2.09,1.9,1.9,0,0,0,.59.33,5.11,5.11,0,0,0,3,.33A3.18,3.18,0,0,0,502,68.25a2.59,2.59,0,0,0-2.13-3.33c-1.52-.24-3.24,1.19-3.87,2.45Z"/><path class="cls-3" d="M500.36,71.68a4.65,4.65,0,0,0-2.06.4A2.19,2.19,0,0,0,498,76a4.34,4.34,0,0,0,2.51.75c1.43,0,3.82-.81,3.41-2.71-.35-1.61-2.06-2.33-3.51-2.33Z"/><path class="cls-3" d="M499.7,81.28a3,3,0,0,1-1.5.89,4.67,4.67,0,0,1-4.06-.75A2.08,2.08,0,0,1,494,78c1.7-1,7.84.65,5.66,3.27Z"/><path class="cls-3" d="M456.77,98.85a19.6,19.6,0,0,1,3.58.85,36,36,0,0,1,4.53.91c1.44.54,2.76,1.91,2.53,3.43a4.78,4.78,0,0,1-.57,1.47l-2.73,5.18c-1,1.87-2.83,3.61-5.07,2.42-1.66-.89-1.65-3.28-1.59-4.89a3,3,0,0,0-1-2.75,6.6,6.6,0,0,0-1.07-.42c-3.19-1.31-2.07-6.34,1.41-6.2Z"/><path class="cls-3" d="M460.86,95.5a2.19,2.19,0,0,0,0,2.28,2.15,2.15,0,0,0,1.26.61c2.39.46,7.23-1.2,5.31-4.42-1.56-2.63-5.65-.56-6.59,1.53Z"/><path class="cls-3" d="M470.68,96.2a2.89,2.89,0,0,0-1.12,3.08,1.25,1.25,0,0,0,.31.55,1.71,1.71,0,0,0,.9.39,6.6,6.6,0,0,0,3.75-.42,3.66,3.66,0,0,0,1.78-1.46,2,2,0,0,0-.1-2.2c-1.39-1.62-4-1.07-5.52.06Z"/><path class="cls-3" d="M474.14,101.42a4.47,4.47,0,0,0-2.92.94,2.41,2.41,0,0,0-.65,2.83,3.46,3.46,0,0,0,2.25,1.4,5.7,5.7,0,0,0,3.44.07A2.51,2.51,0,0,0,478,104c-.49-2-1.87-2.55-3.83-2.53Z"/><path class="cls-3" d="M468,108.84a2.49,2.49,0,0,0-1.54,1.61c-.71,2.86,3.84,3.14,5.55,2.4,2-.89,2-3.18,0-4.15a5.31,5.31,0,0,0-4,.14Z"/><path class="cls-3" d="M408.42,70.85a3.08,3.08,0,0,1,4.32-2.19,6.27,6.27,0,0,1,1,.77l3.49,3.08a20.26,20.26,0,0,1,2.69,2.71,4.1,4.1,0,0,1,1,3.17c-.31,1.48-1.81,2.35-3.15,3l-3.91,2a7.62,7.62,0,0,1-3.72,1.13,2.63,2.63,0,0,1-2.62-2.39c0-1.22,1.19-2.06,1.85-3.08,2-3.06-1.33-5.24-1-8.2Z"/><path class="cls-3" d="M417.84,70.23a1.68,1.68,0,0,0,.22.94,1.9,1.9,0,0,0,.82.66,4.29,4.29,0,0,0,3.28.2,8.84,8.84,0,0,0,.84-.36,3.47,3.47,0,0,0,.61-.38c1.52-1.23.38-3.67-1.34-4s-4.33.89-4.43,2.89Z"/><path class="cls-3" d="M423.9,74.87a1.79,1.79,0,0,0-.9,1.89,2.28,2.28,0,0,0,.36.57,5.19,5.19,0,0,0,2.49,1.72,3.19,3.19,0,0,0,2.91-.56,2.59,2.59,0,0,0-.29-3.94c-1.22-.93-3.41-.5-4.57.32Z"/><path class="cls-3" d="M425.69,80.74a4.74,4.74,0,0,0-2-.63,2.42,2.42,0,0,0-1.91.74,2.37,2.37,0,0,0-.24,2.51,4.26,4.26,0,0,0,1.85,1.86c1.24.7,3.74,1.11,4.28-.76.46-1.58-.7-3-2-3.72Z"/><path class="cls-3" d="M420.55,88.87a3.06,3.06,0,0,1-1.75.07,4.71,4.71,0,0,1-3.21-2.6c-.54-1.24,0-3,1.54-3,2-.11,6.58,4.3,3.42,5.57Z"/><path class="cls-3" d="M374.43,83.86a18.69,18.69,0,0,1,2.74,2.46,36,36,0,0,1,3.55,2.94c1,1.17,1.52,3,.59,4.24a4.56,4.56,0,0,1-1.21,1l-4.86,3.26c-1.76,1.17-4.2,1.82-5.61-.3-1-1.57.11-3.66.93-5.06a3,3,0,0,0,.41-2.89,6.82,6.82,0,0,0-.73-.88c-2.18-2.67,1.2-6.56,4.19-4.78Z"/><path class="cls-3" d="M379.62,82.86a1.78,1.78,0,0,0-.25,3.16c1.88,1.53,6.93,2.38,6.78-1.36-.12-3.06-4.71-3.19-6.53-1.8Z"/><path class="cls-3" d="M387.92,88.16a2.87,2.87,0,0,0-2.45,2.17,1.26,1.26,0,0,0,0,.64,1.72,1.72,0,0,0,.61.76,6.49,6.49,0,0,0,3.49,1.42,3.66,3.66,0,0,0,2.26-.43,2,2,0,0,0,1-2c-.44-2.08-3-2.84-4.88-2.57Z"/><path class="cls-3" d="M388.48,94.39a4.47,4.47,0,0,0-3-.56A2.4,2.4,0,0,0,383.54,96a3.44,3.44,0,0,0,1.32,2.3,5.65,5.65,0,0,0,3,1.7,2.48,2.48,0,0,0,2.78-1.57c.55-2-.42-3.13-2.15-4Z"/><path class="cls-3" d="M379.55,98a2.51,2.51,0,0,0-2.12.68c-2,2.17,1.89,4.59,3.74,4.75,2.21.19,3.23-1.87,2-3.63a5.28,5.28,0,0,0-3.61-1.8Z"/><path class="cls-3" d="M336.47,41.51a3.07,3.07,0,0,1,4.62-1.42A5.48,5.48,0,0,1,342,41l2.91,3.63a18.32,18.32,0,0,1,2.19,3.13,4.06,4.06,0,0,1,.46,3.29c-.56,1.41-2.18,2-3.62,2.45l-4.19,1.28a7.67,7.67,0,0,1-3.86.48,2.64,2.64,0,0,1-2.17-2.81c.25-1.19,1.52-1.82,2.34-2.72,2.48-2.68-.42-5.39.45-8.24Z"/><path class="cls-3" d="M345.86,42.51a1.57,1.57,0,0,0,.06,1,1.88,1.88,0,0,0,.69.79,4.32,4.32,0,0,0,3.19.75,5.86,5.86,0,0,0,.9-.21,3.16,3.16,0,0,0,.66-.27c1.71-1,1-3.56-.65-4.12s-4.42.14-4.85,2.1Z"/><path class="cls-3" d="M351,48.1c-.68.32-1.34,1-1.21,1.71a1.83,1.83,0,0,0,.26.63,5.19,5.19,0,0,0,2.16,2.12,3.19,3.19,0,0,0,3-.06,2.58,2.58,0,0,0,.38-3.93c-1-1.12-3.28-1.07-4.55-.47Z"/><path class="cls-3" d="M351.81,54.2a4.72,4.72,0,0,0-1.87-1,2.2,2.2,0,0,0-2.68,2.84,4.34,4.34,0,0,0,1.51,2.15c1.1.9,3.5,1.73,4.35,0,.72-1.48-.17-3.1-1.31-4Z"/><path class="cls-3" d="M345.35,61.33a3,3,0,0,1-1.73-.23A4.69,4.69,0,0,1,340.89,58c-.32-1.31.51-2.91,2-2.73,2,.23,5.75,5.36,2.42,6.07Z"/><path class="cls-3" d="M300.76,48.53A19.46,19.46,0,0,1,303,51.42a36.84,36.84,0,0,1,3,3.51c.79,1.33,1,3.22-.14,4.27a4.56,4.56,0,0,1-1.36.8l-5.35,2.38c-1.94.85-4.46,1.08-5.48-1.25-.76-1.72.74-3.59,1.78-4.82a3,3,0,0,0,.89-2.79,6.51,6.51,0,0,0-.57-1c-1.69-3,2.31-6.26,4.95-4Z"/><path class="cls-3" d="M306,48.44a2.19,2.19,0,0,0-1.39,1.8,2.14,2.14,0,0,0,.61,1.26c1.59,1.84,6.42,3.54,6.91-.18.4-3-4.09-3.94-6.13-2.88Z"/><path class="cls-3" d="M313.32,55.07a2.91,2.91,0,0,0-2.79,1.72,1.38,1.38,0,0,0-.09.63,1.65,1.65,0,0,0,.46.86,6.51,6.51,0,0,0,3.21,2,3.62,3.62,0,0,0,2.3,0,2,2,0,0,0,1.28-1.79c-.08-2.13-2.48-3.32-4.37-3.37Z"/><path class="cls-3" d="M312.81,61.31a4.5,4.5,0,0,0-2.88-1.07,2.4,2.4,0,0,0-2.26,1.82,3.44,3.44,0,0,0,.9,2.49,5.66,5.66,0,0,0,2.66,2.19,2.49,2.49,0,0,0,3-1.07c.88-1.91.11-3.16-1.43-4.36Z"/><path class="cls-3" d="M303.39,63.34a2.51,2.51,0,0,0-2.2.31c-2.33,1.8,1.08,4.84,2.87,5.32,2.15.56,3.51-1.29,2.58-3.24a5.28,5.28,0,0,0-3.25-2.39Z"/><path class="cls-3" d="M253,20.9a3.07,3.07,0,0,1,3.77-3,5.52,5.52,0,0,1,1.15.55l4.05,2.3a19.88,19.88,0,0,1,3.18,2.1,4.07,4.07,0,0,1,1.64,2.9c0,1.51-1.29,2.66-2.47,3.61l-3.42,2.72a7.64,7.64,0,0,1-3.42,1.87,2.63,2.63,0,0,1-3-1.81c-.2-1.2.74-2.25,1.18-3.39,1.32-3.4-2.37-4.85-2.61-7.83Z"/><path class="cls-3" d="M262.06,18.38a1.64,1.64,0,0,0,.41.87,1.92,1.92,0,0,0,.94.48,4.35,4.35,0,0,0,3.25-.47,7.67,7.67,0,0,0,.74-.53,3.14,3.14,0,0,0,.53-.5c1.23-1.51-.38-3.67-2.12-3.59s-4.06,1.76-3.75,3.74Z"/><path class="cls-3" d="M268.94,21.68a1.79,1.79,0,0,0-.5,2,2.18,2.18,0,0,0,.47.49,5.14,5.14,0,0,0,2.8,1.17,3.16,3.16,0,0,0,2.72-1.14,2.57,2.57,0,0,0-1.08-3.79c-1.39-.67-3.45.2-4.41,1.24Z"/><path class="cls-3" d="M271.9,27.06a4.66,4.66,0,0,0-2.09-.21A2.41,2.41,0,0,0,268.09,28a2.37,2.37,0,0,0,.27,2.51,4.21,4.21,0,0,0,2.19,1.44c1.35.44,3.89.33,4-1.61.13-1.64-1.31-2.82-2.69-3.24Z"/><path class="cls-3" d="M268.51,36.06a2.93,2.93,0,0,1-1.69.43,4.69,4.69,0,0,1-3.68-1.89,2.08,2.08,0,0,1,.89-3.29c1.92-.51,7.32,2.87,4.48,4.75Z"/><path class="cls-3" d="M222.34,40.57a18.89,18.89,0,0,1,3.19,1.85,35.12,35.12,0,0,1,4.07,2.16c1.22.94,2.1,2.63,1.44,4a4.48,4.48,0,0,1-1,1.24q-2,2.1-4.1,4.18c-1.48,1.51-3.74,2.65-5.55.86-1.34-1.33-.64-3.61-.12-5.14a3,3,0,0,0-.19-2.92,6.93,6.93,0,0,0-.9-.72c-2.68-2.17-.16-6.66,3.13-5.53Z"/><path class="cls-3" d="M227.22,38.54a2.18,2.18,0,0,0-.63,2.19,2.15,2.15,0,0,0,1,.94c2.16,1.12,7.27.93,6.36-2.71-.74-3-5.26-2.16-6.76-.42Z"/><path class="cls-3" d="M236.43,42a2.87,2.87,0,0,0-2,2.63,1.27,1.27,0,0,0,.14.61,1.66,1.66,0,0,0,.75.63,6.51,6.51,0,0,0,3.71.67,3.66,3.66,0,0,0,2.13-.88,2,2,0,0,0,.53-2.14c-.86-1.95-3.53-2.17-5.3-1.52Z"/><path class="cls-3" d="M238.25,48a4.44,4.44,0,0,0-3.07.07,2.39,2.39,0,0,0-1.44,2.52,3.48,3.48,0,0,0,1.76,2,5.69,5.69,0,0,0,3.27,1.06,2.49,2.49,0,0,0,2.41-2.11c.12-2.09-1.06-3-2.93-3.52Z"/><path class="cls-3" d="M230.24,53.37a2.5,2.5,0,0,0-1.94,1.1c-1.5,2.53,2.79,4.11,4.63,3.89,2.2-.27,2.79-2.49,1.21-4a5.3,5.3,0,0,0-3.9-1Z"/><path class="cls-3" d="M169.54,24.5a3.06,3.06,0,0,1,3.15-3.67,5.89,5.89,0,0,1,1.23.33l4.4,1.53a19.43,19.43,0,0,1,3.52,1.48A4.1,4.1,0,0,1,184,26.72c.28,1.49-.78,2.86-1.77,4s-1.91,2.2-2.86,3.31a7.6,7.6,0,0,1-3,2.45A2.61,2.61,0,0,1,173,35.26c-.41-1.14.32-2.35.54-3.54.67-3.59-3.22-4.35-4-7.22Z"/><path class="cls-3" d="M178,20.35a1.67,1.67,0,0,0,.56.79,2.09,2.09,0,0,0,1,.3,4.36,4.36,0,0,0,3.11-1.06,8,8,0,0,0,.64-.66,3.43,3.43,0,0,0,.42-.58c.94-1.71-1-3.55-2.74-3.14s-3.67,2.46-3,4.35Z"/><path class="cls-3" d="M185.38,22.34a1.78,1.78,0,0,0-.12,2.09,2,2,0,0,0,.55.39,5.14,5.14,0,0,0,3,.65,3.16,3.16,0,0,0,2.47-1.62,2.58,2.58,0,0,0-1.76-3.53c-1.48-.41-3.34.83-4.1,2Z"/><path class="cls-3" d="M189.27,27.09a4.8,4.8,0,0,0-2.1.18,2.18,2.18,0,0,0-.76,3.82,4.28,4.28,0,0,0,2.42,1c1.41.18,3.88-.39,3.68-2.33-.18-1.63-1.8-2.53-3.24-2.69Z"/><path class="cls-3" d="M187.59,36.56a3,3,0,0,1-1.59.73,4.7,4.7,0,0,1-4-1.19c-1-.93-1.11-2.73.28-3.39,1.79-.86,7.72,1.49,5.28,3.85Z"/><path class="cls-3" d="M143,49.42a18.43,18.43,0,0,1,3.47,1.24,34.58,34.58,0,0,1,4.4,1.38c1.38.7,2.54,2.2,2.16,3.69a5.06,5.06,0,0,1-.73,1.4L149,62c-1.18,1.76-3.2,3.29-5.3,1.86-1.56-1.06-1.29-3.43-1.06-5A3,3,0,0,0,142,56a8.86,8.86,0,0,0-1-.54c-3-1.64-1.38-6.52,2.06-6Z"/><path class="cls-3" d="M147.44,46.53a2.19,2.19,0,0,0-.22,2.27,2.12,2.12,0,0,0,1.18.75c2.33.7,7.32-.42,5.76-3.83-1.27-2.78-5.56-1.17-6.72.81Z"/><path class="cls-3" d="M157.13,48.29a2.88,2.88,0,0,0-1.45,2.94,1.37,1.37,0,0,0,.25.58,1.8,1.8,0,0,0,.85.48,6.54,6.54,0,0,0,3.77,0A3.65,3.65,0,0,0,162.49,51a2,2,0,0,0,.13-2.19c-1.2-1.77-3.87-1.49-5.49-.53Z"/><path class="cls-3" d="M160,53.84a4.44,4.44,0,0,0-3,.63,2.38,2.38,0,0,0-.94,2.74,3.44,3.44,0,0,0,2.08,1.63,5.72,5.72,0,0,0,3.42.44,2.5,2.5,0,0,0,2-2.51C163.27,54.69,162,54,160,53.84Z"/><path class="cls-3" d="M153.11,60.56a2.5,2.5,0,0,0-1.7,1.44c-1,2.76,3.49,3.53,5.26,3,2.12-.66,2.29-3,.46-4.12a5.33,5.33,0,0,0-4-.3Z"/><path class="cls-3" d="M87.37,40.85a3.07,3.07,0,0,1,2.37-4.22,6.78,6.78,0,0,1,1.27.08l4.61.64a18.94,18.94,0,0,1,3.74.76,4.09,4.09,0,0,1,2.6,2.08c.56,1.4-.21,3-.95,4.27l-2.16,3.8a7.68,7.68,0,0,1-2.47,3,2.63,2.63,0,0,1-3.51-.55c-.63-1-.15-2.36-.16-3.58,0-3.65-4-3.63-5.34-6.29Z"/><path class="cls-3" d="M94.86,35.11a1.62,1.62,0,0,0,.71.66,1.84,1.84,0,0,0,1,.1,4.34,4.34,0,0,0,2.84-1.65,5.64,5.64,0,0,0,.5-.77,3.19,3.19,0,0,0,.3-.65c.58-1.86-1.72-3.27-3.3-2.54s-3.12,3.13-2.09,4.85Z"/><path class="cls-3" d="M102.47,35.62a1.79,1.79,0,0,0,.3,2.07,1.92,1.92,0,0,0,.62.27,5.13,5.13,0,0,0,3,.06,3.19,3.19,0,0,0,2.1-2.08,2.58,2.58,0,0,0-2.42-3.12c-1.53-.1-3.12,1.48-3.63,2.8Z"/><path class="cls-3" d="M107.22,39.51a4.82,4.82,0,0,0-2,.58A2.4,2.4,0,0,0,104,41.77,2.37,2.37,0,0,0,105.21,44a4.29,4.29,0,0,0,2.57.52c1.42-.1,3.73-1.15,3.15-3-.49-1.56-2.26-2.13-3.71-2Z"/><path class="cls-3" d="M107.44,49.13a3.08,3.08,0,0,1-1.42,1,4.72,4.72,0,0,1-4.12-.39,2.08,2.08,0,0,1-.39-3.39c1.59-1.19,7.86-.05,5.93,2.75Z"/><path class="cls-3" d="M66.26,70.5a19.84,19.84,0,0,1,3.65.53,37,37,0,0,1,4.59.49c1.48.42,2.92,1.66,2.83,3.2a4.58,4.58,0,0,1-.44,1.51l-2.25,5.41c-.81,2-2.49,3.85-4.83,2.86-1.74-.73-1.94-3.12-2-4.73a3,3,0,0,0-1.26-2.64,7.79,7.79,0,0,0-1.1-.33c-3.29-1-2.63-6.12.84-6.3Z"/><path class="cls-3" d="M70,66.8a2.19,2.19,0,0,0,.24,2.27,2.09,2.09,0,0,0,1.3.49c2.42.24,7.09-1.84,4.89-4.88-1.79-2.48-5.68-.05-6.43,2.12Z"/><path class="cls-3" d="M79.88,66.61A2.88,2.88,0,0,0,79,69.78a1.35,1.35,0,0,0,.36.52,1.69,1.69,0,0,0,.93.3A6.48,6.48,0,0,0,84,69.85a3.65,3.65,0,0,0,1.65-1.62,2,2,0,0,0-.3-2.18c-1.53-1.49-4.09-.7-5.49.56Z"/><path class="cls-3" d="M83.8,71.49A4.45,4.45,0,0,0,81,72.7a2.39,2.39,0,0,0-.4,2.87A3.41,3.41,0,0,0,83,76.76a5.68,5.68,0,0,0,3.44-.24,2.5,2.5,0,0,0,1.45-2.85c-.67-2-2.1-2.37-4-2.18Z"/><path class="cls-3" d="M78.36,79.44A2.53,2.53,0,0,0,77,81.18c-.45,2.91,4.11,2.78,5.74,1.89,2-1.07,1.66-3.35-.35-4.13a5.29,5.29,0,0,0-4,.5Z"/><path class="cls-3" d="M12,81.34a3.06,3.06,0,0,1,.85-4.76,5.52,5.52,0,0,1,1.22-.35l4.56-.93a19.42,19.42,0,0,1,3.79-.52,4,4,0,0,1,3.13,1.1c1,1.14.79,2.85.52,4.34s-.51,2.87-.77,4.31A7.66,7.66,0,0,1,24,88.18a2.62,2.62,0,0,1-3.49.65c-.94-.77-.92-2.18-1.34-3.32-1.26-3.43-5-2.1-7.13-4.17Z"/><path class="cls-3" d="M17.18,73.44a1.54,1.54,0,0,0,.88.39,2,2,0,0,0,1-.25,4.35,4.35,0,0,0,2.13-2.5,5.48,5.48,0,0,0,.21-.89,3.51,3.51,0,0,0,.07-.72c-.07-2-2.7-2.51-4-1.3s-1.9,4-.35,5.27Z"/><path class="cls-3" d="M24.52,71.39a1.8,1.8,0,0,0,1,1.86,1.91,1.91,0,0,0,.67.06,5.25,5.25,0,0,0,2.88-1,3.19,3.19,0,0,0,1.3-2.65A2.58,2.58,0,0,0,27,67.56c-1.48.41-2.45,2.42-2.5,3.83Z"/><path class="cls-3" d="M30.29,73.5a4.72,4.72,0,0,0-1.71,1.21,2.2,2.2,0,0,0,1.3,3.69,4.35,4.35,0,0,0,2.6-.37c1.31-.56,3.14-2.31,2-3.88-1-1.31-2.84-1.26-4.17-.65Z"/><path class="cls-3" d="M33.69,82.49a3,3,0,0,1-1,1.44,4.67,4.67,0,0,1-4,1c-1.31-.32-2.36-1.79-1.5-3.07,1.11-1.65,7.4-2.66,6.51.62Z"/><path class="cls-3" d="M1.93,116.31a19.71,19.71,0,0,1,3.61-.71,37.42,37.42,0,0,1,4.49-1c1.54-.11,3.31.59,3.74,2.07a4.87,4.87,0,0,1,.09,1.57c-.11,2-.23,3.9-.34,5.85-.12,2.11-1.07,4.46-3.6,4.3-1.89-.12-2.86-2.3-3.49-3.79-.39-.94-1-1.94-2.06-2.07a7.45,7.45,0,0,0-1.15.06c-3.44.13-4.51-4.91-1.29-6.23Z"/><path class="cls-3" d="M4.26,111.57a2.18,2.18,0,0,0,1,2.06,2.16,2.16,0,0,0,1.4,0c2.36-.58,6.07-4.1,3-6.24-2.51-1.74-5.37,1.84-5.36,4.14Z"/><path class="cls-3" d="M13.49,108.13a2.89,2.89,0,0,0,.25,3.27,1.59,1.59,0,0,0,.52.37,1.69,1.69,0,0,0,1,0,6.54,6.54,0,0,0,3.24-2,3.6,3.6,0,0,0,1-2.06,2,2,0,0,0-1-2c-1.94-.9-4.09.69-5,2.35Z"/><path class="cls-3" d="M18.8,111.43a4.42,4.42,0,0,0-2.26,2.08,2.38,2.38,0,0,0,.58,2.84,3.4,3.4,0,0,0,2.63.33,5.66,5.66,0,0,0,3.16-1.36,2.5,2.5,0,0,0,.42-3.17c-1.29-1.66-2.76-1.55-4.53-.72Z"/><path class="cls-3" d="M16.3,120.74a2.52,2.52,0,0,0-.73,2.1c.54,2.89,4.8,1.25,6-.13,1.49-1.65.46-3.7-1.7-3.77a5.27,5.27,0,0,0-3.61,1.8Z"/></g><g class="cls-2"><path class="cls-3" d="M906.63,23.42a3.07,3.07,0,0,0-4.33-2.16,6.73,6.73,0,0,0-1,.78l-3.46,3.11a19.74,19.74,0,0,0-2.67,2.74,4,4,0,0,0-1,3.17c.32,1.48,1.82,2.34,3.18,3L901.29,36A7.55,7.55,0,0,0,905,37.1a2.63,2.63,0,0,0,2.6-2.41c-.06-1.22-1.2-2-1.87-3.06-2-3.05,1.28-5.26.88-8.21Z"/><path class="cls-3" d="M897.21,22.88a1.59,1.59,0,0,1-.21.94,1.84,1.84,0,0,1-.81.67,4.39,4.39,0,0,1-3.28.23,7.86,7.86,0,0,1-.84-.36,3.5,3.5,0,0,1-.62-.37c-1.53-1.21-.41-3.67,1.31-4s4.34.85,4.45,2.85Z"/><path class="cls-3" d="M891.19,27.57a1.77,1.77,0,0,1,.92,1.88,1.87,1.87,0,0,1-.35.57,5.22,5.22,0,0,1-2.48,1.75,3.19,3.19,0,0,1-2.91-.54,2.59,2.59,0,0,1,.25-3.94c1.22-.94,3.42-.53,4.57.28Z"/><path class="cls-3" d="M889.45,33.46a4.63,4.63,0,0,1,2-.65A2.19,2.19,0,0,1,893.64,36a4.31,4.31,0,0,1-1.84,1.87c-1.23.72-3.73,1.15-4.29-.71-.48-1.58.67-3,1.94-3.74Z"/><path class="cls-3" d="M894.67,41.54a3,3,0,0,0,1.74.06,4.73,4.73,0,0,0,3.2-2.64,2.07,2.07,0,0,0-1.57-3c-2-.1-6.54,4.36-3.37,5.6Z"/><path class="cls-3" d="M940.74,36.13A18.7,18.7,0,0,0,938,38.61a37.19,37.19,0,0,0-3.52,3c-1,1.17-1.49,3-.55,4.23a4.72,4.72,0,0,0,1.21,1l4.9,3.21c1.76,1.16,4.21,1.79,5.6-.34,1-1.58-.15-3.67-1-5.05a3,3,0,0,1-.44-2.9,7.57,7.57,0,0,1,.73-.88c2.15-2.69-1.27-6.55-4.24-4.74Z"/><path class="cls-3" d="M935.54,35.18a2.2,2.2,0,0,1,1.09,2,2.17,2.17,0,0,1-.81,1.15c-1.87,1.55-6.9,2.45-6.79-1.3.09-3.06,4.68-3.23,6.51-1.85Z"/><path class="cls-3" d="M927.29,40.55a2.9,2.9,0,0,1,2.48,2.15,1.48,1.48,0,0,1,0,.63,1.74,1.74,0,0,1-.6.77,6.61,6.61,0,0,1-3.49,1.45,3.67,3.67,0,0,1-2.26-.41,2,2,0,0,1-1-2c.43-2.09,3-2.87,4.86-2.61Z"/><path class="cls-3" d="M926.79,46.78a4.45,4.45,0,0,1,3-.58,2.38,2.38,0,0,1,1.93,2.16,3.41,3.41,0,0,1-1.29,2.31,5.69,5.69,0,0,1-3,1.73,2.51,2.51,0,0,1-2.81-1.55c-.56-2,.41-3.14,2.13-4.07Z"/><path class="cls-3" d="M935.75,50.31a2.53,2.53,0,0,1,2.13.66c2,2.16-1.85,4.61-3.7,4.79-2.21.21-3.25-1.84-2-3.62a5.33,5.33,0,0,1,3.6-1.83Z"/><path class="cls-3" d="M988.32,6.78a3.06,3.06,0,0,0-3.89-2.86,6.07,6.07,0,0,0-1.13.59L979.36,7a19.49,19.49,0,0,0-3.1,2.23,4.08,4.08,0,0,0-1.51,3c.07,1.51,1.4,2.61,2.62,3.5l3.53,2.59A7.69,7.69,0,0,0,984.39,20a2.63,2.63,0,0,0,3-1.94c.15-1.21-.83-2.22-1.32-3.33-1.45-3.35,2.17-5,2.28-7.94Z"/><path class="cls-3" d="M979.13,4.64a1.61,1.61,0,0,1-.37.89,1.85,1.85,0,0,1-.91.52,4.33,4.33,0,0,1-3.27-.34,6.33,6.33,0,0,1-.77-.5,3.44,3.44,0,0,1-.54-.47c-1.3-1.45.22-3.68,2-3.67s4.13,1.58,3.89,3.57Z"/><path class="cls-3" d="M972.4,8.22a1.78,1.78,0,0,1,.58,2,2.08,2.08,0,0,1-.44.5A5.16,5.16,0,0,1,969.79,12,3.17,3.17,0,0,1,967,11,2.59,2.59,0,0,1,968,7.17c1.35-.72,3.45.06,4.45,1.05Z"/><path class="cls-3" d="M969.68,13.73a4.58,4.58,0,0,1,2.07-.3,2.45,2.45,0,0,1,1.77,1,2.4,2.4,0,0,1-.17,2.52,4.25,4.25,0,0,1-2.13,1.53c-1.33.49-3.87.49-4.1-1.44-.2-1.63,1.18-2.87,2.56-3.35Z"/><path class="cls-3" d="M973.43,22.58a3,3,0,0,0,1.71.36,4.69,4.69,0,0,0,3.6-2.05,2.08,2.08,0,0,0-1-3.25c-1.94-.43-7.19,3.18-4.28,4.94Z"/><path class="cls-3" d="M1019.75,25.15a18.34,18.34,0,0,0-3.11,2,36,36,0,0,0-4,2.33c-1.18,1-2,2.71-1.27,4.08a4.72,4.72,0,0,0,1,1.2l4.27,4c1.54,1.44,3.85,2.49,5.58.62,1.28-1.38.49-3.63-.09-5.14a3,3,0,0,1,.06-2.93,9,9,0,0,1,.87-.75c2.58-2.28-.12-6.66-3.36-5.39Z"/><path class="cls-3" d="M1014.79,23.32a2.17,2.17,0,0,1,.72,2.16,2.07,2.07,0,0,1-1,1c-2.1,1.21-7.22,1.23-6.46-2.44.61-3,5.16-2.38,6.73-.71Z"/><path class="cls-3" d="M1005.74,27.2a2.88,2.88,0,0,1,2.07,2.54,1.32,1.32,0,0,1-.12.62,1.64,1.64,0,0,1-.72.66,6.57,6.57,0,0,1-3.68.83,3.62,3.62,0,0,1-2.16-.8,2,2,0,0,1-.63-2.11c.78-2,3.44-2.32,5.24-1.74Z"/><path class="cls-3" d="M1004.17,33.25a4.5,4.5,0,0,1,3.07-.06,2.4,2.4,0,0,1,1.54,2.47,3.47,3.47,0,0,1-1.67,2.05,5.72,5.72,0,0,1-3.23,1.19,2.49,2.49,0,0,1-2.49-2c-.21-2.09.93-3,2.78-3.65Z"/><path class="cls-3" d="M1012.4,38.26a2.54,2.54,0,0,1,2,1c1.61,2.47-2.61,4.22-4.46,4.08-2.21-.17-2.89-2.37-1.37-3.91a5.3,5.3,0,0,1,3.85-1.19Z"/><path class="cls-3" d="M1073.9,9.78a3.07,3.07,0,0,0-2.75-4,5.91,5.91,0,0,0-1.26.2l-4.53,1.06a19.08,19.08,0,0,0-3.66,1.1,4.1,4.1,0,0,0-2.39,2.31c-.43,1.45.48,2.93,1.34,4.17s1.67,2.39,2.5,3.59a7.79,7.79,0,0,0,2.74,2.76,2.62,2.62,0,0,0,3.44-.87c.54-1.09-.07-2.37-.16-3.58-.29-3.64,3.65-4,4.73-6.76Z"/><path class="cls-3" d="M1065.9,4.76a1.61,1.61,0,0,1-.63.73,2,2,0,0,1-1,.19,4.39,4.39,0,0,1-3-1.38,6.33,6.33,0,0,1-.56-.72,3.9,3.9,0,0,1-.37-.62c-.75-1.8,1.42-3.42,3.06-2.84s3.39,2.83,2.52,4.64Z"/><path class="cls-3" d="M1058.37,6a1.78,1.78,0,0,1-.1,2.09,1.9,1.9,0,0,1-.59.33,5.11,5.11,0,0,1-3,.33,3.18,3.18,0,0,1-2.29-1.87,2.59,2.59,0,0,1,2.12-3.33c1.52-.24,3.25,1.18,3.87,2.45Z"/><path class="cls-3" d="M1054,10.29a4.56,4.56,0,0,1,2.06.39,2.43,2.43,0,0,1,1.33,1.56,2.4,2.4,0,0,1-1,2.33,4.37,4.37,0,0,1-2.52.75c-1.42,0-3.82-.79-3.41-2.7.34-1.6,2.06-2.33,3.51-2.33Z"/><path class="cls-3" d="M1054.68,19.88a3,3,0,0,0,1.5.89,4.73,4.73,0,0,0,4.07-.76,2.08,2.08,0,0,0,.08-3.41c-1.69-1-7.83.67-5.65,3.28Z"/><path class="cls-3" d="M1097.66,37.35a19.66,19.66,0,0,0-3.58.87,36,36,0,0,0-4.53.91c-1.43.55-2.75,1.92-2.52,3.44a4.88,4.88,0,0,0,.57,1.47l2.74,5.17c1,1.87,2.84,3.61,5.08,2.41,1.66-.89,1.64-3.28,1.58-4.9a3,3,0,0,1,1-2.74,7.58,7.58,0,0,1,1.06-.43c3.18-1.32,2.05-6.34-1.42-6.2Z"/><path class="cls-3" d="M1093.56,34a2.18,2.18,0,0,1,0,2.27,2.1,2.1,0,0,1-1.26.62c-2.38.46-7.23-1.18-5.32-4.41,1.56-2.64,5.65-.58,6.6,1.52Z"/><path class="cls-3" d="M1083.74,34.74a2.89,2.89,0,0,1,1.13,3.08,1.43,1.43,0,0,1-.31.55,1.79,1.79,0,0,1-.9.39,6.52,6.52,0,0,1-3.75-.42,3.66,3.66,0,0,1-1.79-1.45,2,2,0,0,1,.1-2.2c1.38-1.63,4-1.08,5.52.05Z"/><path class="cls-3" d="M1080.29,40a4.43,4.43,0,0,1,2.92.94,2.4,2.4,0,0,1,.66,2.83,3.48,3.48,0,0,1-2.25,1.4,5.7,5.7,0,0,1-3.44.08,2.5,2.5,0,0,1-1.71-2.71c.48-2,1.87-2.55,3.82-2.54Z"/><path class="cls-3" d="M1086.44,47.37A2.51,2.51,0,0,1,1088,49c.71,2.85-3.84,3.14-5.55,2.41-2-.88-2-3.18,0-4.15a5.31,5.31,0,0,1,4,.13Z"/><path class="cls-3" d="M1153.38,39.67a3.06,3.06,0,0,0-1.53-4.58,5.88,5.88,0,0,0-1.26-.17l-4.65-.25a19.4,19.4,0,0,0-3.81,0,4.07,4.07,0,0,0-3,1.55c-.82,1.27-.36,2.94.12,4.37s.94,2.76,1.4,4.15a7.64,7.64,0,0,0,1.86,3.41,2.62,2.62,0,0,0,3.54.14c.82-.9.6-2.3.85-3.49.74-3.58,4.62-2.8,6.43-5.17Z"/><path class="cls-3" d="M1147.11,32.62a1.72,1.72,0,0,1-.81.52,1.89,1.89,0,0,1-1-.11,4.33,4.33,0,0,1-2.48-2.16,7.92,7.92,0,0,1-.34-.85,3.87,3.87,0,0,1-.17-.69c-.22-1.94,2.31-2.89,3.73-1.87s2.46,3.67,1.12,5.16Z"/><path class="cls-3" d="M1139.54,31.67a1.79,1.79,0,0,1-.68,2,1.87,1.87,0,0,1-.66.15,5.09,5.09,0,0,1-3-.52,3.18,3.18,0,0,1-1.68-2.43,2.59,2.59,0,0,1,3-2.61c1.52.19,2.78,2,3,3.43Z"/><path class="cls-3" d="M1134.14,34.6a4.61,4.61,0,0,1,1.87.95,2.19,2.19,0,0,1-.74,3.83,4.26,4.26,0,0,1-2.62,0c-1.38-.36-3.45-1.83-2.53-3.54.78-1.45,2.63-1.67,4-1.26Z"/><path class="cls-3" d="M1132.11,44a2.94,2.94,0,0,0,1.19,1.28,4.72,4.72,0,0,0,4.12.41c1.25-.5,2.07-2.11,1-3.25-1.33-1.47-7.71-1.55-6.34,1.56Z"/><path class="cls-3" d="M1168.47,72.79a19.47,19.47,0,0,0-3.67-.17,37.56,37.56,0,0,0-4.6-.39c-1.54.13-3.18,1.07-3.39,2.6a4.63,4.63,0,0,0,.14,1.57c.4,1.91.79,3.82,1.19,5.73.43,2.07,1.71,4.26,4.2,3.73,1.84-.39,2.49-2.69,2.89-4.25a3,3,0,0,1,1.74-2.36,7.22,7.22,0,0,1,1.14-.11c3.42-.37,3.74-5.52.36-6.35Z"/><path class="cls-3" d="M1165.48,68.44a2.21,2.21,0,0,1-.66,2.19,2.12,2.12,0,0,1-1.38.23c-2.42-.22-6.61-3.16-3.87-5.72,2.22-2.09,5.58,1,5.91,3.3Z"/><path class="cls-3" d="M1155.84,66.39a2.87,2.87,0,0,1,.23,3.27,1.35,1.35,0,0,1-.45.44,1.68,1.68,0,0,1-1,.13,6.61,6.61,0,0,1-3.49-1.45,3.69,3.69,0,0,1-1.31-1.9,2,2,0,0,1,.71-2.08c1.78-1.18,4.15.09,5.28,1.59Z"/><path class="cls-3" d="M1151.07,70.44a4.45,4.45,0,0,1,2.54,1.72,2.38,2.38,0,0,1-.16,2.9,3.43,3.43,0,0,1-2.55.71,5.72,5.72,0,0,1-3.32-.88,2.5,2.5,0,0,1-.88-3.08c1-1.82,2.5-1.93,4.37-1.37Z"/><path class="cls-3" d="M1154.91,79.27a2.54,2.54,0,0,1,1,2c-.11,2.94-4.57,1.94-6,.76-1.71-1.41-1-3.6,1.13-4a5.31,5.31,0,0,1,3.84,1.25Z"/><path class="cls-3" d="M1222.18,71.22a3.07,3.07,0,0,0-2.75-4,6,6,0,0,0-1.26.19l-4.54,1a18.51,18.51,0,0,0-3.65,1.1,4.07,4.07,0,0,0-2.4,2.3c-.43,1.45.47,2.92,1.33,4.17l2.5,3.59a7.63,7.63,0,0,0,2.73,2.77,2.63,2.63,0,0,0,3.44-.86c.54-1.09-.06-2.37-.15-3.58-.29-3.64,3.66-4,4.75-6.75Z"/><path class="cls-3" d="M1214.19,66.18a1.57,1.57,0,0,1-.64.73,2,2,0,0,1-1,.19,4.33,4.33,0,0,1-3-1.39A6.68,6.68,0,0,1,1209,65a3.85,3.85,0,0,1-.36-.62c-.75-1.81,1.42-3.42,3.07-2.83s3.38,2.84,2.51,4.64Z"/><path class="cls-3" d="M1206.66,67.37a1.81,1.81,0,0,1-.11,2.09,1.9,1.9,0,0,1-.59.33,5.14,5.14,0,0,1-3,.33,3.19,3.19,0,0,1-2.28-1.87,2.58,2.58,0,0,1,2.13-3.33c1.52-.24,3.24,1.19,3.87,2.45Z"/><path class="cls-3" d="M1202.28,71.68a4.65,4.65,0,0,1,2.06.4,2.43,2.43,0,0,1,1.33,1.56,2.4,2.4,0,0,1-1,2.33,4.36,4.36,0,0,1-2.51.75c-1.43,0-3.83-.81-3.41-2.71.35-1.61,2.06-2.33,3.51-2.33Z"/><path class="cls-3" d="M1202.93,81.28a3,3,0,0,0,1.5.89,4.69,4.69,0,0,0,4.07-.75,2.08,2.08,0,0,0,.09-3.41c-1.69-1-7.84.65-5.66,3.27Z"/><path class="cls-3" d="M1245.87,98.85a19.41,19.41,0,0,0-3.58.85,36,36,0,0,0-4.53.91c-1.44.54-2.76,1.91-2.54,3.43a4.56,4.56,0,0,0,.58,1.47l2.73,5.18c1,1.87,2.82,3.61,5.07,2.42,1.66-.89,1.65-3.28,1.59-4.89a3,3,0,0,1,1-2.75,6.6,6.6,0,0,1,1.07-.42c3.18-1.31,2.06-6.34-1.41-6.2Z"/><path class="cls-3" d="M1241.78,95.5a2.19,2.19,0,0,1,0,2.28,2.15,2.15,0,0,1-1.25.61c-2.39.46-7.23-1.2-5.32-4.42,1.56-2.63,5.66-.56,6.6,1.53Z"/><path class="cls-3" d="M1232,96.2a2.9,2.9,0,0,1,1.13,3.08,1.36,1.36,0,0,1-.31.55,1.74,1.74,0,0,1-.9.39,6.6,6.6,0,0,1-3.75-.42,3.68,3.68,0,0,1-1.79-1.46,2,2,0,0,1,.11-2.2c1.38-1.62,4-1.07,5.51.06Z"/><path class="cls-3" d="M1228.5,101.42a4.42,4.42,0,0,1,2.91.94,2.38,2.38,0,0,1,.65,2.83,3.41,3.41,0,0,1-2.25,1.4,5.7,5.7,0,0,1-3.44.07,2.51,2.51,0,0,1-1.7-2.71c.49-2,1.87-2.55,3.83-2.53Z"/><path class="cls-3" d="M1234.63,108.84a2.54,2.54,0,0,1,1.54,1.61c.71,2.86-3.85,3.14-5.55,2.4-2-.89-2-3.18,0-4.15a5.31,5.31,0,0,1,4,.14Z"/><path class="cls-3" d="M1294.21,70.85a3.07,3.07,0,0,0-4.31-2.19,6.27,6.27,0,0,0-1,.77l-3.49,3.08a20.33,20.33,0,0,0-2.7,2.71,4.05,4.05,0,0,0-1,3.17c.31,1.48,1.8,2.35,3.15,3l3.91,2a7.62,7.62,0,0,0,3.72,1.13,2.63,2.63,0,0,0,2.62-2.39c0-1.22-1.19-2.06-1.85-3.08-2-3.06,1.33-5.24,1-8.2Z"/><path class="cls-3" d="M1284.79,70.23a1.53,1.53,0,0,1-.22.94,1.93,1.93,0,0,1-.81.66,4.29,4.29,0,0,1-3.28.2,7.86,7.86,0,0,1-.84-.36,4,4,0,0,1-.62-.38c-1.51-1.23-.37-3.67,1.35-4s4.33.89,4.42,2.89Z"/><path class="cls-3" d="M1278.73,74.87a1.77,1.77,0,0,1,.9,1.89,1.83,1.83,0,0,1-.36.57,5.1,5.1,0,0,1-2.49,1.72,3.17,3.17,0,0,1-2.9-.56,2.58,2.58,0,0,1,.29-3.94c1.22-.93,3.41-.5,4.56.32Z"/><path class="cls-3" d="M1276.94,80.74a4.78,4.78,0,0,1,2-.63,2.19,2.19,0,0,1,2.16,3.25,4.31,4.31,0,0,1-1.85,1.86c-1.24.7-3.75,1.11-4.29-.76-.46-1.58.7-3,2-3.72Z"/><path class="cls-3" d="M1282.08,88.87a3.06,3.06,0,0,0,1.75.07,4.7,4.7,0,0,0,3.22-2.6c.54-1.24,0-3-1.54-3-2-.11-6.58,4.3-3.43,5.57Z"/><path class="cls-3" d="M1328.21,83.86a18.2,18.2,0,0,0-2.74,2.46,34.84,34.84,0,0,0-3.55,2.94c-1,1.17-1.52,3-.59,4.24a4.51,4.51,0,0,0,1.2,1l4.87,3.26c1.75,1.17,4.2,1.82,5.6-.3,1-1.57-.11-3.66-.92-5.06a3,3,0,0,1-.41-2.89,6.82,6.82,0,0,1,.73-.88c2.18-2.67-1.2-6.56-4.19-4.78Z"/><path class="cls-3" d="M1323,82.86a2.22,2.22,0,0,1,1.06,2,2.18,2.18,0,0,1-.81,1.14c-1.89,1.53-6.93,2.38-6.78-1.36.12-3.06,4.7-3.19,6.53-1.8Z"/><path class="cls-3" d="M1314.71,88.16a2.87,2.87,0,0,1,2.46,2.17,1.38,1.38,0,0,1,0,.64,1.72,1.72,0,0,1-.61.76,6.49,6.49,0,0,1-3.49,1.42,3.71,3.71,0,0,1-2.27-.43,2,2,0,0,1-1-2c.44-2.08,3-2.84,4.87-2.57Z"/><path class="cls-3" d="M1314.16,94.39a4.45,4.45,0,0,1,3-.56,2.4,2.4,0,0,1,1.92,2.18,3.39,3.39,0,0,1-1.31,2.3,5.69,5.69,0,0,1-3,1.7,2.49,2.49,0,0,1-2.79-1.57c-.54-2,.43-3.13,2.16-4Z"/><path class="cls-3" d="M1323.09,98a2.52,2.52,0,0,1,2.12.68c2,2.17-1.89,4.59-3.74,4.75-2.21.19-3.23-1.87-2-3.63a5.28,5.28,0,0,1,3.61-1.8Z"/><path class="cls-3" d="M1366.16,41.51a3.07,3.07,0,0,0-4.62-1.42,5.43,5.43,0,0,0-.86.93l-2.92,3.63a18.9,18.9,0,0,0-2.19,3.13,4.05,4.05,0,0,0-.45,3.29c.55,1.41,2.18,2,3.62,2.45l4.18,1.28a7.69,7.69,0,0,0,3.86.48,2.64,2.64,0,0,0,2.18-2.81c-.26-1.19-1.52-1.82-2.34-2.72-2.48-2.68.41-5.39-.46-8.24Z"/><path class="cls-3" d="M1356.78,42.51a1.57,1.57,0,0,1-.06,1,1.88,1.88,0,0,1-.69.79,4.33,4.33,0,0,1-3.2.75,5.48,5.48,0,0,1-.89-.21,3.24,3.24,0,0,1-.67-.27c-1.7-1-1-3.56.66-4.12s4.41.14,4.85,2.1Z"/><path class="cls-3" d="M1351.6,48.1c.68.32,1.33,1,1.21,1.71a2,2,0,0,1-.26.63,5.25,5.25,0,0,1-2.16,2.12,3.19,3.19,0,0,1-3-.06,2.59,2.59,0,0,1-.39-3.93c1-1.12,3.28-1.07,4.56-.47Z"/><path class="cls-3" d="M1350.83,54.2a4.62,4.62,0,0,1,1.86-1,2.43,2.43,0,0,1,2,.41,2.4,2.4,0,0,1,.68,2.43,4.36,4.36,0,0,1-1.52,2.15c-1.09.9-3.49,1.73-4.35,0-.72-1.48.18-3.1,1.32-4Z"/><path class="cls-3" d="M1357.28,61.33a3,3,0,0,0,1.74-.23,4.68,4.68,0,0,0,2.72-3.11,2.07,2.07,0,0,0-2-2.73c-2,.23-5.75,5.36-2.43,6.07Z"/><path class="cls-3" d="M1401.88,48.53a18.83,18.83,0,0,0-2.28,2.89,35.45,35.45,0,0,0-3,3.51c-.79,1.33-1,3.22.14,4.27a4.44,4.44,0,0,0,1.36.8l5.35,2.38c1.93.85,4.45,1.08,5.47-1.25.76-1.72-.73-3.59-1.77-4.82a3,3,0,0,1-.9-2.79,6.51,6.51,0,0,1,.57-1c1.7-3-2.3-6.26-4.94-4Z"/><path class="cls-3" d="M1396.59,48.44a2.17,2.17,0,0,1,1.39,1.8,2.07,2.07,0,0,1-.6,1.26c-1.6,1.84-6.42,3.54-6.92-.18-.4-3,4.1-3.94,6.13-2.88Z"/><path class="cls-3" d="M1389.32,55.07a2.92,2.92,0,0,1,2.79,1.72,1.53,1.53,0,0,1,.09.63,1.67,1.67,0,0,1-.47.86,6.53,6.53,0,0,1-3.2,2,3.62,3.62,0,0,1-2.3,0,2,2,0,0,1-1.28-1.79c.08-2.13,2.48-3.32,4.37-3.37Z"/><path class="cls-3" d="M1389.83,61.31a4.46,4.46,0,0,1,2.88-1.07,2.4,2.4,0,0,1,2.26,1.82,3.48,3.48,0,0,1-.9,2.49,5.66,5.66,0,0,1-2.66,2.19,2.5,2.5,0,0,1-3-1.07c-.88-1.91-.11-3.16,1.44-4.36Z"/><path class="cls-3" d="M1399.24,63.34a2.53,2.53,0,0,1,2.21.31c2.33,1.8-1.08,4.84-2.88,5.32-2.14.56-3.5-1.29-2.58-3.24a5.28,5.28,0,0,1,3.25-2.39Z"/><path class="cls-3" d="M1449.67,20.9a3.07,3.07,0,0,0-3.78-3,5.69,5.69,0,0,0-1.14.55l-4,2.3a20,20,0,0,0-3.19,2.1,4.1,4.1,0,0,0-1.63,2.9c0,1.51,1.29,2.66,2.47,3.61l3.42,2.72a7.56,7.56,0,0,0,3.41,1.87,2.62,2.62,0,0,0,3-1.81c.2-1.2-.74-2.25-1.17-3.39-1.32-3.4,2.36-4.85,2.61-7.83Z"/><path class="cls-3" d="M1440.57,18.38a1.63,1.63,0,0,1-.4.87,2,2,0,0,1-.94.48,4.35,4.35,0,0,1-3.25-.47,7.81,7.81,0,0,1-.75-.53,3.5,3.5,0,0,1-.52-.5c-1.23-1.51.38-3.67,2.12-3.59s4.06,1.76,3.74,3.74Z"/><path class="cls-3" d="M1433.7,21.68a1.78,1.78,0,0,1,.49,2,2,2,0,0,1-.47.49,5.11,5.11,0,0,1-2.79,1.17,3.17,3.17,0,0,1-2.73-1.14,2.58,2.58,0,0,1,1.09-3.79c1.39-.67,3.44.2,4.41,1.24Z"/><path class="cls-3" d="M1430.74,27.06a4.65,4.65,0,0,1,2.09-.21,2.43,2.43,0,0,1,1.72,1.11,2.39,2.39,0,0,1-.27,2.51,4.29,4.29,0,0,1-2.19,1.44c-1.36.44-3.89.33-4-1.61-.13-1.64,1.3-2.82,2.69-3.24Z"/><path class="cls-3" d="M1434.12,36.06a2.94,2.94,0,0,0,1.7.43,4.7,4.7,0,0,0,3.68-1.89,2.08,2.08,0,0,0-.89-3.29c-1.92-.51-7.32,2.87-4.49,4.75Z"/><path class="cls-3" d="M1480.29,40.57a18.81,18.81,0,0,0-3.18,1.85,36.09,36.09,0,0,0-4.08,2.16c-1.22.94-2.09,2.63-1.44,4a4.67,4.67,0,0,0,1,1.24l4.11,4.18c1.48,1.51,3.74,2.65,5.54.86,1.34-1.33.64-3.61.13-5.14a3,3,0,0,1,.19-2.92,6.83,6.83,0,0,1,.89-.72c2.68-2.17.16-6.66-3.13-5.53Z"/><path class="cls-3" d="M1475.42,38.54a2.2,2.2,0,0,1,.63,2.19,2.15,2.15,0,0,1-1,.94c-2.16,1.12-7.27.93-6.36-2.71.74-3,5.25-2.16,6.76-.42Z"/><path class="cls-3" d="M1466.21,42a2.89,2.89,0,0,1,2,2.63,1.4,1.4,0,0,1-.14.61,1.71,1.71,0,0,1-.75.63,6.54,6.54,0,0,1-3.71.67,3.63,3.63,0,0,1-2.13-.88,2,2,0,0,1-.53-2.14c.86-1.95,3.53-2.17,5.3-1.52Z"/><path class="cls-3" d="M1464.39,48a4.44,4.44,0,0,1,3.07.07,2.38,2.38,0,0,1,1.43,2.52,3.43,3.43,0,0,1-1.75,2,5.7,5.7,0,0,1-3.28,1.06,2.51,2.51,0,0,1-2.41-2.11c-.12-2.09,1.06-3,2.94-3.52Z"/><path class="cls-3" d="M1472.4,53.37a2.51,2.51,0,0,1,1.94,1.1c1.5,2.53-2.79,4.11-4.63,3.89-2.21-.27-2.79-2.49-1.21-4a5.28,5.28,0,0,1,3.9-1Z"/><path class="cls-3" d="M1533.1,24.5a3.07,3.07,0,0,0-3.16-3.67,5.8,5.8,0,0,0-1.22.33l-4.4,1.53a19.13,19.13,0,0,0-3.52,1.48,4,4,0,0,0-2.13,2.55c-.28,1.49.78,2.86,1.76,4L1523.3,34a7.64,7.64,0,0,0,3,2.45,2.61,2.61,0,0,0,3.33-1.22c.42-1.14-.31-2.35-.54-3.54-.67-3.59,3.22-4.35,4-7.22Z"/><path class="cls-3" d="M1524.62,20.35a1.6,1.6,0,0,1-.56.79,2.06,2.06,0,0,1-1,.3,4.34,4.34,0,0,1-3.1-1.06,8,8,0,0,1-.64-.66,3.48,3.48,0,0,1-.43-.58c-.93-1.71,1-3.55,2.75-3.14s3.67,2.46,3,4.35Z"/><path class="cls-3" d="M1517.26,22.34a1.8,1.8,0,0,1,.12,2.09,2,2,0,0,1-.55.39,5.15,5.15,0,0,1-3,.65,3.18,3.18,0,0,1-2.48-1.62,2.58,2.58,0,0,1,1.76-3.53c1.49-.41,3.35.83,4.11,2Z"/><path class="cls-3" d="M1513.37,27.09a4.76,4.76,0,0,1,2.09.18,2.18,2.18,0,0,1,.77,3.82,4.28,4.28,0,0,1-2.42,1c-1.41.18-3.89-.39-3.68-2.33.17-1.63,1.8-2.53,3.24-2.69Z"/><path class="cls-3" d="M1515.05,36.56a3,3,0,0,0,1.59.73,4.68,4.68,0,0,0,4-1.19,2.07,2.07,0,0,0-.27-3.39c-1.8-.86-7.72,1.49-5.28,3.85Z"/><path class="cls-3" d="M1559.62,49.42a18.34,18.34,0,0,0-3.46,1.24,34.72,34.72,0,0,0-4.41,1.38c-1.37.7-2.54,2.2-2.15,3.69a4.57,4.57,0,0,0,.73,1.4L1553.6,62c1.18,1.76,3.2,3.29,5.3,1.86,1.56-1.06,1.28-3.43,1.06-5a3,3,0,0,1,.72-2.84,8.09,8.09,0,0,1,1-.54c3-1.64,1.37-6.52-2.07-6Z"/><path class="cls-3" d="M1555.2,46.53a2.19,2.19,0,0,1,.22,2.27,2.11,2.11,0,0,1-1.19.75c-2.32.7-7.31-.42-5.75-3.83,1.27-2.78,5.56-1.17,6.72.81Z"/><path class="cls-3" d="M1545.51,48.29a2.9,2.9,0,0,1,1.45,2.94,1.39,1.39,0,0,1-.26.58,1.75,1.75,0,0,1-.85.48,6.54,6.54,0,0,1-3.77,0,3.62,3.62,0,0,1-1.93-1.26,2,2,0,0,1-.13-2.19c1.2-1.77,3.87-1.49,5.49-.53Z"/><path class="cls-3" d="M1542.63,53.84a4.41,4.41,0,0,1,3,.63,2.4,2.4,0,0,1,.95,2.74,3.43,3.43,0,0,1-2.09,1.63,5.68,5.68,0,0,1-3.41.44,2.5,2.5,0,0,1-2-2.51c.26-2.08,1.58-2.74,3.53-2.93Z"/><path class="cls-3" d="M1549.52,60.56a2.53,2.53,0,0,1,1.71,1.44c1,2.76-3.49,3.53-5.26,3-2.12-.66-2.29-3-.47-4.12a5.33,5.33,0,0,1,4-.3Z"/><path class="cls-3" d="M1615.27,40.85a3.07,3.07,0,0,0-2.37-4.22,6.72,6.72,0,0,0-1.27.08l-4.62.64a19.09,19.09,0,0,0-3.74.76,4,4,0,0,0-2.59,2.08c-.56,1.4.2,3,1,4.27l2.15,3.8a7.7,7.7,0,0,0,2.48,3,2.62,2.62,0,0,0,3.5-.55c.64-1,.15-2.36.17-3.58,0-3.65,4-3.63,5.34-6.29Z"/><path class="cls-3" d="M1607.77,35.11a1.59,1.59,0,0,1-.7.66,1.88,1.88,0,0,1-1,.1,4.36,4.36,0,0,1-2.84-1.65,6.71,6.71,0,0,1-.49-.77,3.23,3.23,0,0,1-.31-.65c-.58-1.86,1.72-3.27,3.31-2.54s3.11,3.13,2.08,4.85Z"/><path class="cls-3" d="M1600.16,35.62a1.81,1.81,0,0,1-.29,2.07,2,2,0,0,1-.62.27,5.14,5.14,0,0,1-3,.06,3.18,3.18,0,0,1-2.11-2.08,2.59,2.59,0,0,1,2.42-3.12c1.54-.1,3.12,1.48,3.63,2.8Z"/><path class="cls-3" d="M1595.41,39.51a4.82,4.82,0,0,1,2,.58,2.43,2.43,0,0,1,1.18,1.68,2.39,2.39,0,0,1-1.18,2.23,4.32,4.32,0,0,1-2.57.52c-1.42-.1-3.74-1.15-3.15-3,.49-1.56,2.26-2.13,3.7-2Z"/><path class="cls-3" d="M1595.2,49.13a3.06,3.06,0,0,0,1.41,1,4.71,4.71,0,0,0,4.12-.39,2.08,2.08,0,0,0,.4-3.39c-1.59-1.19-7.86-.05-5.93,2.75Z"/><path class="cls-3" d="M1636.37,70.5a19.73,19.73,0,0,0-3.64.53,36.6,36.6,0,0,0-4.59.49c-1.48.42-2.92,1.66-2.84,3.2a4.84,4.84,0,0,0,.44,1.51l2.25,5.41c.82,2,2.49,3.85,4.83,2.86,1.74-.73,1.94-3.12,2-4.73a3,3,0,0,1,1.27-2.64,8.07,8.07,0,0,1,1.09-.33c3.3-1,2.63-6.12-.84-6.3Z"/><path class="cls-3" d="M1632.6,66.8a2.21,2.21,0,0,1-.23,2.27,2.09,2.09,0,0,1-1.31.49c-2.42.24-7.09-1.84-4.89-4.88,1.79-2.48,5.68-.05,6.43,2.12Z"/><path class="cls-3" d="M1622.75,66.61a2.9,2.9,0,0,1,.85,3.17,1.38,1.38,0,0,1-.37.52,1.63,1.63,0,0,1-.92.3,6.51,6.51,0,0,1-3.7-.75,3.67,3.67,0,0,1-1.64-1.62,2,2,0,0,1,.3-2.18c1.52-1.49,4.08-.7,5.48.56Z"/><path class="cls-3" d="M1618.84,71.49a4.47,4.47,0,0,1,2.82,1.21,2.38,2.38,0,0,1,.39,2.87,3.39,3.39,0,0,1-2.36,1.19,5.68,5.68,0,0,1-3.44-.24,2.5,2.5,0,0,1-1.45-2.85c.67-2,2.09-2.37,4-2.18Z"/><path class="cls-3" d="M1624.28,79.44a2.53,2.53,0,0,1,1.39,1.74c.45,2.91-4.12,2.78-5.75,1.89-1.94-1.07-1.66-3.35.36-4.13a5.29,5.29,0,0,1,4,.5Z"/><path class="cls-3" d="M1690.63,81.34a3.07,3.07,0,0,0-.84-4.76,5.85,5.85,0,0,0-1.22-.35L1684,75.3a19.42,19.42,0,0,0-3.79-.52,4.07,4.07,0,0,0-3.14,1.1c-1,1.14-.78,2.85-.52,4.34l.78,4.31a7.64,7.64,0,0,0,1.33,3.65,2.63,2.63,0,0,0,3.49.65c.94-.77.93-2.18,1.35-3.32,1.25-3.43,5-2.1,7.12-4.17Z"/><path class="cls-3" d="M1685.46,73.44a1.57,1.57,0,0,1-.88.39,1.91,1.91,0,0,1-1-.25,4.32,4.32,0,0,1-2.13-2.5,6.8,6.8,0,0,1-.22-.89,3.51,3.51,0,0,1-.07-.72c.07-2,2.71-2.51,4-1.3s1.9,4,.36,5.27Z"/><path class="cls-3" d="M1678.11,71.39a1.8,1.8,0,0,1-1,1.86,1.94,1.94,0,0,1-.68.06,5.22,5.22,0,0,1-2.87-1,3.14,3.14,0,0,1-1.3-2.65,2.57,2.57,0,0,1,3.31-2.14c1.49.41,2.46,2.42,2.5,3.83Z"/><path class="cls-3" d="M1672.34,73.5a4.72,4.72,0,0,1,1.71,1.21,2.19,2.19,0,0,1-1.3,3.69,4.31,4.31,0,0,1-2.59-.37c-1.31-.56-3.15-2.31-2-3.88,1-1.31,2.84-1.26,4.16-.65Z"/><path class="cls-3" d="M1669,82.49a3,3,0,0,0,1,1.44,4.7,4.7,0,0,0,4,1,2.09,2.09,0,0,0,1.5-3.07c-1.11-1.65-7.4-2.66-6.51.62Z"/><path class="cls-3" d="M1700.71,116.31a19.82,19.82,0,0,0-3.62-.71,37,37,0,0,0-4.49-1c-1.53-.11-3.31.59-3.73,2.07a4.61,4.61,0,0,0-.09,1.57l.33,5.85c.12,2.11,1.07,4.46,3.61,4.3,1.88-.12,2.86-2.3,3.48-3.79.4-.94,1-1.94,2.07-2.07a7.26,7.26,0,0,1,1.14.06c3.45.13,4.52-4.91,1.3-6.23Z"/><path class="cls-3" d="M1698.38,111.57a2.22,2.22,0,0,1-1,2.06,2.16,2.16,0,0,1-1.4,0c-2.36-.58-6.08-4.1-3-6.24,2.51-1.74,5.37,1.84,5.36,4.14Z"/><path class="cls-3" d="M1689.15,108.13a2.88,2.88,0,0,1-.26,3.27,1.46,1.46,0,0,1-.51.37,1.72,1.72,0,0,1-1,0,6.56,6.56,0,0,1-3.23-2,3.67,3.67,0,0,1-1-2.06,2,2,0,0,1,1-2c1.93-.9,4.09.69,5,2.35Z"/><path class="cls-3" d="M1683.84,111.43a4.46,4.46,0,0,1,2.26,2.08,2.4,2.4,0,0,1-.58,2.84,3.41,3.41,0,0,1-2.63.33,5.63,5.63,0,0,1-3.16-1.36,2.49,2.49,0,0,1-.42-3.17c1.29-1.66,2.76-1.55,4.53-.72Z"/><path class="cls-3" d="M1686.33,120.74a2.5,2.5,0,0,1,.74,2.1c-.54,2.89-4.81,1.25-6-.13-1.48-1.65-.46-3.7,1.7-3.77a5.23,5.23,0,0,1,3.61,1.8Z"/></g></g></g></g></svg>