<svg xmlns="http://www.w3.org/2000/svg" viewBox="0 0 80 80"><defs><style>.cls-1{fill:#ffdc5d;}.cls-2{fill:#016d38;}</style></defs><g id="Capa_2" data-name="Capa 2"><g id="cuerpo"><circle class="cls-1" cx="40" cy="40" r="40"/><path class="cls-2" d="M24.83,20.22h.06l1.49-.3c1.16-.39,1.41-1.05,1.18-1.69l0-.06v0c0-.15-.06-.38-.91-.28A6.48,6.48,0,0,0,25,18.3l-.33.14.07.11,0,0s0,0,0,.06a2.53,2.53,0,0,1,.16,1,.22.22,0,0,1,0,.1l-.11.44Zm18.57,0-.11-.47a.22.22,0,0,1,0-.09,2.59,2.59,0,0,1,.16-1l0,0a.16.16,0,0,1,0-.06l.06-.11-.1,0-.34-.09-.66-.13-.24,0-.41.1a.75.75,0,0,0-.23.44v0l0,.07a2.07,2.07,0,0,0-.17.82l.08.15.14.08.14.07L42,20l1.19.21Zm14,15.19.29-.32.56-.3.48-.42.54-.88.19-1a2.78,2.78,0,0,0-5.56,0,2.66,2.66,0,0,0,.37,1.38l1,1,.91.35.52.06h.12l.62.15ZM34.07,55.63a.85.85,0,0,0,.84-.84V50.6l.05-.27.77-.23,1.18-.24c6.08-1.46,9.86-6,11.52-11.5a27.74,27.74,0,0,0-1.55-18.92.86.86,0,1,0-1.57.72,26.09,26.09,0,0,1,1.47,17.71c-1.62,5.39-5.36,9.55-11.39,10.54l-.11,0-1.15.34h0L33,48.44l-.11,0c-6-1-9.77-5.15-11.4-10.54a26,26,0,0,1,1.48-17.71A.88.88,0,0,0,22.51,19a.87.87,0,0,0-1.14.43,27.8,27.8,0,0,0-1.56,18.92c1.66,5.52,5.44,10,11.52,11.5l1.19.24.66.2,0,.28v4.21a.84.84,0,0,0,.83.84Zm16.48,7.15.54-.8L52,59.6,52.16,57c-.3-3.11-4.91-4.41-6.78-2-1.34,1.76-1,3.6.66,5.18l2,1.48.41.2,1.67.71.39.14Zm-9.2,7.42c-4-.12-7.63-2.53-8.47-8a.07.07,0,0,0,0-.05V62l0-4.05-.53-.21a.15.15,0,0,1-.07,0,3.45,3.45,0,0,1-1.66-2.94V51.65l-.91-.21h0a15.71,15.71,0,0,1-9.84-7.63c-3.83-7.65-3.7-17.63-.1-25.38A2.74,2.74,0,0,1,21.29,17l.08,0h0l.42-.06,2.22-1,0,0a9.34,9.34,0,0,1,2.26-.59,3.25,3.25,0,0,1,3.47,1.55s0,0,0,0l.18.48s0,0,0,0l.23,1a.21.21,0,0,1,0,.06c.22,2.78-2.53,4.34-6.4,4.38l-.12.31-.15.51-.79,3.54-.1.54L22.6,29l-.1,1.57v1.59l.12,1.57.11,1.16L23,35.91l.36,1.61.55,1.8.88,2c1.58,3.16,5.8,5.19,9,5.19h0l.72,0s0,0,.05,0c3.17,0,7.38-2,9-5.19l.88-2,.54-1.79.37-1.64.2-1,.11-1.12.12-1.63V30.55l-.1-1.61-.1-1.16-.09-.53-.8-3.55-.15-.51-.12-.32-2.62-.24a4.47,4.47,0,0,1-2-.87,2.9,2.9,0,0,1-1-2.86.13.13,0,0,1,0-.06l.22-.83,0-.06,0-.06.37-.84a.22.22,0,0,1,0-.08,3.06,3.06,0,0,1,2.69-1.42,6.5,6.5,0,0,1,2.09.39l0,0,2.16,1,.39.08h.07a2.76,2.76,0,0,1,1.54,1.41c3.59,7.75,3.72,17.73-.11,25.38-2.07,4.14-6.3,6.75-10.26,7.74h0l-.57.11v3.12a3.43,3.43,0,0,1-1.25,2.65l-.79.47v4l.18.92.58,1.61.66,1.07c1.73,2.27,4.66,2.67,7.66,1.71l2.33-1,1.89-1.39-.54-.19c-.51-.23-1-.47-1.45-.72-3.64-2-6.66-6.11-3.48-10.3,3.43-4.51,11-2,11.45,3.19a10.8,10.8,0,0,1-1.36,6.37l0,0,0,.07,2.22-.18,1.79-.86c5.54-4.55,3.64-11.6.79-20.24l-.48-1.47h0a1.32,1.32,0,0,1-1.12-.92l-.55-1.78-.29,0h0a5.39,5.39,0,1,1,5.06-1.65l-.8.7.39,1.26a1.37,1.37,0,0,1,0,.75l-.29.44.54,1.61C63.18,48.82,66.2,58.2,59,64.12a8.26,8.26,0,0,1-5.58,1.66l-1.83-.2-.86.87v0l-2.53,1.85a15.11,15.11,0,0,1-2.83,1.26,12.36,12.36,0,0,1-4,.6Z"/></g></g></svg>