<svg xmlns="http://www.w3.org/2000/svg" viewBox="0 0 150 44.95"><defs><style>.cls-1{fill:#016d38;}.cls-2{fill:#ffdc5d;}</style></defs><g id="Capa_2" data-name="Capa 2"><g id="cuerpo"><path class="cls-1" d="M86.88,31.4H85.56V26.77l1.89,0c1.94,0,2.81.75,2.83,2.33a2,2,0,0,1-1,1.91,5.34,5.34,0,0,1-2.39.41m7.59,7c-.82-.13-1.78-1-3-2.75q-1-1.66-2.07-3.36c2.15-.39,3.18-1.58,3.17-3.45a2.77,2.77,0,0,0-1.55-2.57A6.13,6.13,0,0,0,88,25.56c-.5,0-1.22,0-2.18.06a38.91,38.91,0,0,1-4.6-.06h-.14V26s2.2.35,2.2,1.07c0,.12,0,.77,0,1.7V36.2a4.89,4.89,0,0,1-.14,1.35c-.15.49-1.78.85-1.78.85l-.08.5h.16c1.08-.09,2.14-.13,3.17-.13s2,0,3,.13h.14v-.45a12.82,12.82,0,0,1-2-.77c-.23-.16-.27-.53-.27-1.08,0-.11,0-.44,0-.86s0-.78,0-1.09V32.58H87a66.6,66.6,0,0,1,4.13,6.25l0,.07s1.15-.07,1.7-.07,1.14,0,1.61.06h.14v-.51Z"/><path class="cls-1" d="M5.77,37.68h0l-1.39,0c0-.42,0-.77,0-1.14V32.66h1.3c2.64,0,3.85.89,3.86,2.68s-1.17,2.32-3.71,2.34m.11.1h0v0m-1.59-9c0-.64,0-1.25,0-2.08.43,0,1,0,1.63,0,2,0,2.91.65,2.93,2.32s-1,2.24-3.17,2.26H4.31Zm6.05,3.92a5.22,5.22,0,0,0-2-.74,5.18,5.18,0,0,0,1.56-.68A2.83,2.83,0,0,0,11.23,29,3,3,0,0,0,9.77,26.3a5.52,5.52,0,0,0-3.09-.74l-3.26.06H2.35c-1.3,0-2.35-.08-2.35-.08V26s2,.26,2.2,1.21c0,.13.08,9.76-.08,10.1-.39.84-2.12,1.1-2.12,1.1v.48s1.28-.12,2.69-.1h1l3.58.08A5.37,5.37,0,0,0,10.39,38a3.12,3.12,0,0,0,1.46-2.75,2.87,2.87,0,0,0-1.51-2.59"/><path class="cls-1" d="M26.14,32.73a6.61,6.61,0,0,1-.87,3.56A3.35,3.35,0,0,1,22.22,38a3.51,3.51,0,0,1-3.36-2.24,10,10,0,0,1-.81-4.31A5.52,5.52,0,0,1,19,28a3.63,3.63,0,0,1,3.08-1.51C24.79,26.51,26.12,28.5,26.14,32.73Zm-3.79-7.41a6.58,6.58,0,0,0-5,2,7.1,7.1,0,0,0-1.85,5.06,6.8,6.8,0,0,0,1.78,4.8,6.14,6.14,0,0,0,4.74,2h0A6.16,6.16,0,0,0,27,36.93a7.79,7.79,0,0,0,1.71-5.15A6.45,6.45,0,0,0,27,27.15a6.15,6.15,0,0,0-4.63-1.83"/><path class="cls-1" d="M39.67,37.45H35.82V29c0-1,0-1.55,0-1.8C35.93,26.34,38.2,26,38.2,26v-.43s-2.35.14-3.43.14-3.32-.14-3.32-.14V26s2.2.36,2.2,1.18c0,.13,0,.75,0,1.68V36a3,3,0,0,1-.14,1.37c-.41.8-2.1,1-2.1,1v.53h.14c1.4-.08,3-.12,4.73-.12s3.62,0,5.61.12h.13l.17-3.54h-.57s-.28,2.16-2,2.09"/><path class="cls-1" d="M51.3,22h0a1,1,0,0,0-1-1,1.48,1.48,0,0,0-1,.5l-2.83,3.22h1l3.22-1.81A1.12,1.12,0,0,0,51.3,22Z"/><path class="cls-1" d="M48,25.72c-.78,0-1.82,0-3.13-.16h-.14V26s1.82.4,2.06,1.34a12,12,0,0,1,.09,2.07s.06,3.08,0,4.73c0,2.24-.1,3.23-.68,3.7a3.67,3.67,0,0,1-1.51.54v.54h.14c1.23-.11,2.27-.16,3.13-.16s1.76.05,3,.16h.14v-.54a4.7,4.7,0,0,1-1.54-.56c-.4-.29-.67-1.44-.65-3.68,0-.3,0-4.56,0-4.72,0-.85,0-1.62.07-2.09.12-1.07,2.08-1.33,2.08-1.33v-.43h-.14c-1.35.11-2.37.16-3,.16"/><path class="cls-1" d="M66.56,26l.1,0v-.44l-.15,0a15.06,15.06,0,0,1-2,.12,22.11,22.11,0,0,1-2.22-.12l-.14,0V26l.09,0c.55.17,1.33.41,1.29.67-.23,1.21-2.44,6.75-3,8.11-.43-1-3.28-7.87-3.26-8,0,0-.17-.37,1.52-.73l.1,0v-.44s-1.89.14-2.8.14a18.86,18.86,0,0,1-2.92-.13V26s1.33.34,1.71,1.19c1.4,3.11,3,7.11,4.72,11.89l0,.08h.66l0-.08c1.27-3.43,4-10.29,4.78-11.93A2,2,0,0,1,66.56,26"/><path class="cls-1" d="M70.27,33.59l2-5.07,1.93,5.05Zm3.08-8.37,0-.08h-1l0,.07c-2.11,4.93-2.81,6.42-4.6,10.53-.27.61-.41,1.06-.69,1.58s-1.67,1.06-1.67,1.06v.53l.15,0a22.05,22.05,0,0,1,2.31-.12,23.46,23.46,0,0,1,2.36.12h.15v-.52l-1.73-.64c.59-1.47,1-2.41,1.3-3.23l2.27,0,2.52,0a30.23,30.23,0,0,1,1.12,3.2,13.29,13.29,0,0,1-1.88.57l-.11,0v.53H74c.91-.08,1.88-.12,2.9-.12s2.07,0,3.15.12h.14v-.52a4.74,4.74,0,0,1-1.57-.71,6.58,6.58,0,0,1-.74-1.55C75.06,29.48,74,27,73.35,25.22"/><rect class="cls-2" x="108.19" y="2.37" width="36.8" height="36.45"/><path class="cls-1" d="M127.79,3.93a9.17,9.17,0,0,1,8.4.75,14.21,14.21,0,0,0-5.56.13Z"/><path class="cls-1" d="M130.25,6.26c4.82-.68,5.9.87,5.9.87a8.13,8.13,0,0,0-3.33.12Z"/><path class="cls-1" d="M125.72,24.08c2.45-2.08,5.29-1.55,6.23-.32,1.34,1.76.45,3.68-1.15,5.1,0,0,2-2.15.43-4.2-.65-.87-2.72-1.32-4.53.18s-2.89,4.72.44,6c-3.91.16-4.55-4.09-1.42-6.75"/><path class="cls-1" d="M138.43,16.08C155,9.18,155.93,27.18,126.89,45c21-17.34,25.75-31,11.54-28.87"/><path class="cls-1" d="M113.83,25.91c-17,7.34-5.64,12.92-5.64,12.92s-5.77-6.37,5.64-12.92"/><path class="cls-1" d="M128.88,38.81c8.89-5.22,3-10.4,3-10.4s4,5.35-5.9,10.41Z"/><path class="cls-1" d="M113.62,27.72a23.84,23.84,0,0,0,2.68-8.06s1.75,5.35-2.68,8.06"/><path class="cls-1" d="M110.66,28s-9.19-8.37,5.24-15.31c4.16-2,9.8-2.22,12.3,1.19.75,1,1.31,6.87-7.07,13.46-3.2-1-3.77-2.87-3.77-2.87A5.28,5.28,0,0,0,121,26.05c5.5-4.19,6.77-10.7,5.75-11.68-2.27-2.18-6.21-1.92-10.21-.16C104.29,19.62,110.66,28,110.66,28"/><path class="cls-1" d="M116.66,38.82h-3s3.78-6.29,10.65-7.35a14.39,14.39,0,0,0-7.63,7.35"/><path class="cls-1" d="M118,6.25s.19-3.51,5.76-5.55a10.6,10.6,0,0,1,10.48,1.67S125-1.56,120.46,5.47a10.16,10.16,0,0,0,1.89,1s1.21,8,6.45,10.87a8.7,8.7,0,0,0,3.92-3s-.2,2.81-3.82,4.32c-6.75-3.34-8.26-11.34-8.26-11.34s-2.45-.53-2.6-1.11"/><path class="cls-1" d="M120.62,16.39c-11.79,3.05-7.16,7.92-7.16,7.92s-1.18-3.88,7.16-7.92"/><path class="cls-1" d="M134.87,8.56a4.66,4.66,0,0,0-.43,4.11c.85,2.16,3.54,3.61,3.54,3.61a18.33,18.33,0,0,1-3.11-7.72"/><path class="cls-1" d="M52.43,16l-.06,0,.06,0L52.36,16h0a2.48,2.48,0,0,0-.62-.48l-1.26-.61c-.53-.29-.78-.63-.78-1A1,1,0,0,1,50,13l.11-.09,0,0a1,1,0,0,1,.3-.11,1.65,1.65,0,0,1,.48-.06,2,2,0,0,1,.41,0,1.34,1.34,0,0,1,.41.08l.37,1.07h.18l.07-1.49,0,0a3.78,3.78,0,0,0-1.54-.33,2.54,2.54,0,0,0-1.57.47A1.65,1.65,0,0,0,48.5,14a1.62,1.62,0,0,0,.1.54,2.12,2.12,0,0,0,.88.94l.09,0,0,0c.4.22.72.44,1.15.66s.79.65.79,1a1.37,1.37,0,0,1,0,.36h0a1.11,1.11,0,0,1-.93.69,2.93,2.93,0,0,1-.49,0,1.84,1.84,0,0,1-1-.24l-.21-1.2-.22.05h0l-.19,1.75,0,0A4.28,4.28,0,0,0,50,19a3.64,3.64,0,0,0,1.83-.42A1.75,1.75,0,0,0,52.43,16M37.58,17.25c-.35-.55-.69-1.11-1-1.67a1.65,1.65,0,0,0,1.58-1.72,1.37,1.37,0,0,0-.77-1.28,3,3,0,0,0-1.53-.34l-1.08,0-1.2,0c-.4,0-.77,0-1.09,0h-.07v.26s1,.08,1.09.53c0,.07,0,.34,0,.8V17.5a3.21,3.21,0,0,1-.07.73c-.08.29-.88.43-.88.43l0,.23h.09c.53,0,1.06-.06,1.58-.06s1,0,1.49.06h.08v-.21a4.1,4.1,0,0,1-1-.4c-.11-.09-.16-.21-.16-.48,0-.05,0-.28,0-.49s0-.39,0-.54v-1h.69a32.74,32.74,0,0,1,2.06,3.11l0,0h0c.25,0,.53,0,.81,0s.59,0,.82,0h.07v-.26h0c-.41-.07-.91-.53-1.49-1.38m-2.31-2.1H34.6V12.84h.94c1,0,1.41.38,1.41,1.16a1,1,0,0,1-.5,1,2.69,2.69,0,0,1-1.18.2M29.4,12.28c-.45,0-.91,0-1.34-.06H28v.22s.84.12,1,.48a8.34,8.34,0,0,1,.13,1.65c0,.23,0,2.59-.39,3.1a1.54,1.54,0,0,1-1.25.55A1.7,1.7,0,0,1,26,17.7c-.68-.82-.34-4.31-.34-4.57,0-.49,1.08-.68,1.08-.68v-.23h-.07c-.54,0-1.09.06-1.64.06s-1.08,0-1.57-.06H23.4v.23s1.14.23,1.14.78c0,.2-.18,2.08-.17,2.85a3.59,3.59,0,0,0,.49,2,2.94,2.94,0,0,0,2.39.9,2.37,2.37,0,0,0,2.25-1.1,4.89,4.89,0,0,0,.4-2.25v-.15c0-.77,0-1.36,0-1.77s0-.65,0-.7c0-.48.87-.59.87-.59v-.21H30.7c-.41,0-.85.06-1.3.06M45.63,15.8a3.42,3.42,0,0,1-.43,1.78,1.72,1.72,0,0,1-1.53.83A1.78,1.78,0,0,1,42,17.29a5.17,5.17,0,0,1-.4-2.16,2.71,2.71,0,0,1,.5-1.69,1.8,1.8,0,0,1,1.53-.75C45,12.69,45.62,13.69,45.63,15.8Zm-1.89-3.7a3.28,3.28,0,0,0-2.5,1,3.49,3.49,0,0,0-.92,2.52,3.37,3.37,0,0,0,.89,2.4,3.06,3.06,0,0,0,2.36,1h0A3.06,3.06,0,0,0,46,17.9a3.91,3.91,0,0,0,.86-2.57A3.2,3.2,0,0,0,46.05,13a3,3,0,0,0-2.31-.92M6.22,16a8.39,8.39,0,0,0-2-1.14c-.54-.29-.79-.63-.79-1a1.06,1.06,0,0,1,.79-1,1.72,1.72,0,0,1,1.31.1c.34.25.35,1,.35,1H6.1l.06-1.49a3.85,3.85,0,0,0-1.58-.35A2.56,2.56,0,0,0,3,12.57a1.54,1.54,0,0,0-.65,1.88c.23.75,1.62,1.44,2.05,1.67,1.17.58.88,1.42.88,1.42a1.17,1.17,0,0,1-.89.72c-.28.08-1.36.07-1.53-.18a5.93,5.93,0,0,1-.23-1.21l-.27.06-.18,1.75a4.19,4.19,0,0,0,1.58.3,3.42,3.42,0,0,0,1.83-.42A1.65,1.65,0,0,0,6.54,17a1.64,1.64,0,0,0-.32-1m14.56-.25c-.47,0-1.05,0-1.54,0h-.07v.18s1.07.13,1.07.65v1.55a2.71,2.71,0,0,1-.89.17,2.23,2.23,0,0,1-1.84-.67,3.32,3.32,0,0,1-.66-2,2.87,2.87,0,0,1,.61-2,2.43,2.43,0,0,1,2-.77c.58,0,.81.08,1,.24a3.52,3.52,0,0,1,.44,1h.2V14c0-.29,0-.57,0-.85s0-.54,0-.8v-.06h0a7.64,7.64,0,0,0-1.47-.14,4.41,4.41,0,0,0-2.81,1,3.27,3.27,0,0,0-1.25,2.6,3,3,0,0,0,1.14,2.48,4.1,4.1,0,0,0,2.66.85,6.79,6.79,0,0,0,2-.29h.07v-.06c0-.25,0-1,0-2.08,0-.58.82-.67.82-.67V15.7h-.07c-.45,0-.81,0-1.28,0m-7.92,2.35-2.38,0c0-.68,0-1,0-1.2V15.7h2c.24,0,.55.2.69.9v0h.18v-.06c0-.42,0-.83,0-1.22s0-.78,0-1.15v-.07h-.17l0,0c-.12.63-.4.84-.64.85H10.44V14c0-.17,0-.49.05-1l1.38,0h.87c.25,0,.65.08.76.9v0h.18v-.07c0-.13,0-.27,0-.41q0-.53,0-1.08v-.07h-.07c-.9,0-1.82.06-2.72.06s-1.78,0-2.63-.06H8.22v.22s1.08.16,1.1.53c0,.06,0,.42,0,.88,0,0,.05,2,0,3.26a4,4,0,0,1-.06,1.08c-.22.38-1,.44-1,.44v.24h.07c1-.06,2.11-.09,3-.09s1.68,0,2.44.09h.07V18.8c0-.52,0-1.09,0-1.68v-.07h-.18s-.15,1-.78,1"/></g></g></svg>